<?xml version="1.0" encoding="UTF-8" standalone="no"?>
<!DOCTYPE score-partwise PUBLIC "-//Recordare//DTD MusicXML 4.0 Partwise//EN" "http://www.musicxml.org/dtds/partwise.dtd">
<score-partwise version="4.0">
  <identification>
    <encoding>
      <software>Finale v27.3 for Windows</software>
      <encoding-date>2024-12-17</encoding-date>
      <supports attribute="new-system" element="print" type="yes" value="yes"/>
      <supports attribute="new-page" element="print" type="yes" value="yes"/>
      <supports element="accidental" type="yes"/>
      <supports element="beam" type="yes"/>
      <supports element="stem" type="yes"/>
    </encoding>
  </identification>
  <defaults>
    <scaling>
      <millimeters>8.4667</millimeters>
      <tenths>40</tenths>
    </scaling>
    <page-layout>
      <page-height>1320</page-height>
      <page-width>1020</page-width>
      <page-margins type="both">
        <left-margin>60</left-margin>
        <right-margin>60</right-margin>
        <top-margin>60</top-margin>
        <bottom-margin>60</bottom-margin>
      </page-margins>
    </page-layout>
    <system-layout>
      <system-margins>
        <left-margin>0</left-margin>
        <right-margin>0</right-margin>
      </system-margins>
      <system-distance>110</system-distance>
      <top-system-distance>67</top-system-distance>
    </system-layout>
    <appearance>
      <line-width type="stem">0.7682</line-width>
      <line-width type="beam">5</line-width>
      <line-width type="staff">0.7682</line-width>
      <line-width type="light barline">0.7682</line-width>
      <line-width type="heavy barline">5</line-width>
      <line-width type="leger">0.7682</line-width>
      <line-width type="ending">0.7682</line-width>
      <line-width type="wedge">0.7682</line-width>
      <line-width type="enclosure">0.7682</line-width>
      <line-width type="tuplet bracket">0.7682</line-width>
      <note-size type="grace">50</note-size>
      <note-size type="cue">50</note-size>
      <distance type="hyphen">60</distance>
      <distance type="beam">7.5</distance>
    </appearance>
    <music-font font-family="Maestro,engraved" font-size="24"/>
    <word-font font-family="Times New Roman" font-size="12"/>
    <lyric-font font-family="Times New Roman" font-size="12"/>
  </defaults>
  <credit page="1">
    <credit-words default-x="340" default-y="1092" font-size="19" valign="top">25. Кар, кар, ворона (ДС-ЗІ-03)</credit-words>
  </credit>
  <credit page="1">
    <credit-words default-x="261" default-y="1042" valign="top">Скандовано, швидко</credit-words>
  </credit>
  <credit page="1">
    <credit-words default-x="150" default-y="639" font-size="17" valign="top" xml:space="preserve">1. Кар, кар, ворона
Дітям кашку варила,
На порозі студила:

2. – Біжіть, дітки, по дрова,
Буде каша готова;</credit-words>
  </credit>
  <credit page="1">
    <credit-words default-x="121" default-y="150" valign="top" xml:space="preserve">Зап. 1976 р. експ. ІМФЕ (Омельченко А. Ф., Рубай Г. Т., Довженок Г. В.) у с. Ріпинці Кам’янець-
Подільського р-ну Хмельницької обл. від Манчур М. З., 1928, р. н. – ІМФЕ, ф. 14-5, од. зб. 441 (ІІ), 
арк. 201, пл. ф. 14-10, од. зб. 1396. Нотація Єфремової Л. О. Бавлять дитину, водячи пальцем по 
дитячій долоньці. (Прим. зап.).</credit-words>
  </credit>
  <credit page="1">
    <credit-words default-x="143" default-y="453" font-size="17" valign="top" xml:space="preserve">3. Біжіть, дітки, по тріски,
Дам вам кашки потрошки

4. Цьму дам, цьому дам, (2)
А цьому голову круть, круть!</credit-words>
  </credit>
  <credit page="1">
    <credit-words default-x="144" default-y="259" font-size="17" valign="top" xml:space="preserve">5. Гей. гей, полетіли,
На головку сіли!</credit-words>
  </credit>
  <part-list>
    <score-part id="P1">
      <part-name print-object="no">MusicXML Part</part-name>
      <group>score</group>
      <score-instrument id="P1-I1">
        <instrument-name>Èíñòðóìåíò 1</instrument-name>
      </score-instrument>
      <midi-instrument id="P1-I1">
        <midi-channel>1</midi-channel>
        <midi-program>1</midi-program>
        <volume>80</volume>
        <pan>0</pan>
      </midi-instrument>
    </score-part>
  </part-list>
  <!--=========================================================-->
  <part id="P1">
    <measure number="1" width="230">
      <print>
        <page-layout>
          <page-height>1320</page-height>
          <page-width>1020</page-width>
          <page-margins>
            <left-margin>119</left-margin>
            <right-margin>60</right-margin>
            <top-margin>60</top-margin>
            <bottom-margin>60</bottom-margin>
          </page-margins>
        </page-layout>
        <system-layout>
          <system-margins>
            <left-margin>60</left-margin>
            <right-margin>0</right-margin>
          </system-margins>
          <top-system-distance>262</top-system-distance>
        </system-layout>
        <measure-numbering>none</measure-numbering>
      </print>
      <attributes>
        <divisions>120</divisions>
        <key>
          <fifths>0</fifths>
          <mode>major</mode>
        </key>
        <time print-object="yes">
          <beats>2</beats>
          <beat-type>4</beat-type>
        </time>
        <clef>
          <sign>G</sign>
          <line>2</line>
        </clef>
      </attributes>
      <sound tempo="96">
        <swing>
          <straight/>
        </swing>
      </sound>
      <note default-x="107">
        <pitch>
          <step>G</step>
          <octave>4</octave>
        </pitch>
        <duration>120</duration>
        <voice>1</voice>
        <type>quarter</type>
        <stem default-y="5">up</stem>
        <lyric default-y="-66" number="3">
          <syllabic>single</syllabic>
          <text>1.</text>
          <elision> </elision>
          <syllabic>single</syllabic>
          <text>Кар,</text>
        </lyric>
      </note>
      <note default-x="168">
        <pitch>
          <step>F</step>
          <octave>4</octave>
        </pitch>
        <duration>120</duration>
        <voice>1</voice>
        <type>quarter</type>
        <stem default-y="0">up</stem>
        <lyric default-y="-66" number="3">
          <syllabic>single</syllabic>
          <text>кар,</text>
        </lyric>
      </note>
    </measure>
    <!--=======================================================-->
    <measure number="2" width="160">
      <note default-x="18">
        <pitch>
          <step>G</step>
          <octave>4</octave>
        </pitch>
        <duration>60</duration>
        <voice>1</voice>
        <type>eighth</type>
        <stem default-y="5">up</stem>
        <lyric default-y="-66" number="3">
          <syllabic>begin</syllabic>
          <text>во</text>
        </lyric>
      </note>
      <note default-x="57">
        <pitch>
          <step>G</step>
          <octave>4</octave>
        </pitch>
        <duration>60</duration>
        <voice>1</voice>
        <type>eighth</type>
        <stem default-y="5">up</stem>
        <lyric default-y="-66" number="3">
          <syllabic>middle</syllabic>
          <text>ро</text>
        </lyric>
      </note>
      <note default-x="96">
        <pitch>
          <step>F</step>
          <octave>4</octave>
        </pitch>
        <duration>120</duration>
        <voice>1</voice>
        <type>quarter</type>
        <stem default-y="0">up</stem>
        <lyric default-y="-66" number="3">
          <syllabic>end</syllabic>
          <text>на</text>
        </lyric>
      </note>
    </measure>
    <!--=======================================================-->
    <measure number="3" width="232">
      <note default-x="40">
        <pitch>
          <step>G</step>
          <octave>4</octave>
        </pitch>
        <duration>60</duration>
        <voice>1</voice>
        <type>eighth</type>
        <stem default-y="5">up</stem>
        <lyric default-y="-66" number="3" relative-x="16">
          <syllabic>begin</syllabic>
          <text>ді</text>
        </lyric>
        <lyric default-y="-87" number="4" relative-x="-19">
          <syllabic>single</syllabic>
          <text>2.</text>
          <elision> </elision>
          <syllabic>single</syllabic>
          <text>–</text>
          <elision> </elision>
          <syllabic>begin</syllabic>
          <text>Бі</text>
        </lyric>
        <lyric default-y="-106" number="5" relative-x="-4">
          <syllabic>single</syllabic>
          <text>3.</text>
          <elision> </elision>
          <syllabic>begin</syllabic>
          <text>бі</text>
        </lyric>
      </note>
      <note default-x="100">
        <pitch>
          <step>G</step>
          <octave>4</octave>
        </pitch>
        <duration>60</duration>
        <voice>1</voice>
        <type>eighth</type>
        <stem default-y="5">up</stem>
        <lyric default-y="-66" number="3">
          <syllabic>end</syllabic>
          <text>тям</text>
        </lyric>
        <lyric default-y="-87" number="4">
          <syllabic>end</syllabic>
          <text>жіть,</text>
        </lyric>
        <lyric default-y="-106" number="5">
          <syllabic>end</syllabic>
          <text>жіть,</text>
        </lyric>
      </note>
      <note default-x="148">
        <pitch>
          <step>F</step>
          <octave>4</octave>
        </pitch>
        <duration>60</duration>
        <voice>1</voice>
        <type>eighth</type>
        <stem default-y="0">up</stem>
        <lyric default-y="-66" number="3">
          <syllabic>begin</syllabic>
          <text>каш</text>
        </lyric>
        <lyric default-y="-87" number="4">
          <syllabic>begin</syllabic>
          <text>діт</text>
        </lyric>
        <lyric default-y="-106" number="5">
          <syllabic>begin</syllabic>
          <text>діт</text>
        </lyric>
      </note>
      <note default-x="192">
        <pitch>
          <step>F</step>
          <octave>4</octave>
        </pitch>
        <duration>60</duration>
        <voice>1</voice>
        <type>eighth</type>
        <stem default-y="0">up</stem>
        <lyric default-y="-66" number="3">
          <syllabic>end</syllabic>
          <text>ку</text>
        </lyric>
        <lyric default-y="-87" number="4">
          <syllabic>end</syllabic>
          <text>ки,</text>
        </lyric>
        <lyric default-y="-106" number="5">
          <syllabic>end</syllabic>
          <text>ки,</text>
        </lyric>
      </note>
    </measure>
    <!--=======================================================-->
    <measure number="4" width="160">
      <note default-x="19">
        <pitch>
          <step>G</step>
          <octave>4</octave>
        </pitch>
        <duration>60</duration>
        <voice>1</voice>
        <type>eighth</type>
        <stem default-y="5">up</stem>
        <lyric default-y="-66" number="3">
          <syllabic>begin</syllabic>
          <text>ва</text>
        </lyric>
        <lyric default-y="-87" number="4">
          <syllabic>single</syllabic>
          <text>по</text>
        </lyric>
        <lyric default-y="-106" number="5">
          <syllabic>single</syllabic>
          <text>по</text>
        </lyric>
      </note>
      <note default-x="60">
        <pitch>
          <step>G</step>
          <octave>4</octave>
        </pitch>
        <duration>60</duration>
        <voice>1</voice>
        <type>eighth</type>
        <stem default-y="5">up</stem>
        <lyric default-y="-66" number="3">
          <syllabic>middle</syllabic>
          <text>ри</text>
        </lyric>
        <lyric default-y="-87" number="4">
          <syllabic>begin</syllabic>
          <text>дро</text>
        </lyric>
        <lyric default-y="-106" number="5">
          <syllabic>begin</syllabic>
          <text>тріс</text>
        </lyric>
      </note>
      <note default-x="101">
        <pitch>
          <step>F</step>
          <octave>4</octave>
        </pitch>
        <duration>120</duration>
        <voice>1</voice>
        <type>quarter</type>
        <stem default-y="0">up</stem>
        <lyric default-y="-66" number="3">
          <syllabic>end</syllabic>
          <text>ла,</text>
        </lyric>
        <lyric default-y="-87" number="4">
          <syllabic>end</syllabic>
          <text>ва,</text>
        </lyric>
        <lyric default-y="-106" number="5">
          <syllabic>end</syllabic>
          <text>ки,</text>
        </lyric>
      </note>
    </measure>
    <!--=======================================================-->
    <measure number="5" width="195">
      <print new-system="yes">
        <system-layout>
          <system-distance>94</system-distance>
        </system-layout>
      </print>
      <note default-x="62">
        <pitch>
          <step>G</step>
          <octave>4</octave>
        </pitch>
        <duration>60</duration>
        <voice>1</voice>
        <type>eighth</type>
        <stem default-y="5">up</stem>
        <lyric default-y="-66" number="3">
          <syllabic>single</syllabic>
          <text>на</text>
        </lyric>
        <lyric default-y="-87" number="4">
          <syllabic>begin</syllabic>
          <text>бу</text>
        </lyric>
        <lyric default-y="-106" number="5">
          <syllabic>single</syllabic>
          <text>дам</text>
        </lyric>
      </note>
      <note default-x="100">
        <pitch>
          <step>G</step>
          <octave>4</octave>
        </pitch>
        <duration>60</duration>
        <voice>1</voice>
        <type>eighth</type>
        <stem default-y="5">up</stem>
        <lyric default-y="-66" number="3">
          <syllabic>begin</syllabic>
          <text>по</text>
        </lyric>
        <lyric default-y="-87" number="4">
          <syllabic>middle</syllabic>
          <text>де</text>
        </lyric>
        <lyric default-y="-106" number="5">
          <syllabic>single</syllabic>
          <text>вам</text>
        </lyric>
      </note>
      <note default-x="133">
        <pitch>
          <step>F</step>
          <octave>4</octave>
        </pitch>
        <duration>60</duration>
        <voice>1</voice>
        <type>eighth</type>
        <stem default-y="0">up</stem>
        <lyric default-y="-66" number="3">
          <syllabic>middle</syllabic>
          <text>ро</text>
        </lyric>
        <lyric default-y="-87" number="4">
          <syllabic>middle</syllabic>
          <text>ка</text>
        </lyric>
        <lyric default-y="-106" number="5">
          <syllabic>begin</syllabic>
          <text>ка</text>
        </lyric>
      </note>
      <note default-x="166">
        <pitch>
          <step>F</step>
          <octave>4</octave>
        </pitch>
        <duration>60</duration>
        <voice>1</voice>
        <type>eighth</type>
        <stem default-y="0">up</stem>
        <lyric default-y="-66" number="3">
          <syllabic>end</syllabic>
          <text>зі</text>
        </lyric>
        <lyric default-y="-87" number="4">
          <syllabic>end</syllabic>
          <text>ша</text>
        </lyric>
        <lyric default-y="-106" number="5">
          <syllabic>end</syllabic>
          <text>ші</text>
        </lyric>
      </note>
    </measure>
    <!--=======================================================-->
    <measure number="6" width="160">
      <note default-x="23">
        <pitch>
          <step>G</step>
          <octave>4</octave>
        </pitch>
        <duration>60</duration>
        <voice>1</voice>
        <type>eighth</type>
        <stem default-y="5">up</stem>
        <lyric default-y="-66" number="3">
          <syllabic>begin</syllabic>
          <text>сту</text>
        </lyric>
        <lyric default-y="-87" number="4">
          <syllabic>begin</syllabic>
          <text>го</text>
        </lyric>
      </note>
      <note default-x="58">
        <pitch>
          <step>G</step>
          <octave>4</octave>
        </pitch>
        <duration>60</duration>
        <voice>1</voice>
        <type>eighth</type>
        <stem default-y="5">up</stem>
        <lyric default-y="-66" number="3">
          <syllabic>middle</syllabic>
          <text>ди</text>
        </lyric>
        <lyric default-y="-87" number="4">
          <syllabic>middle</syllabic>
          <text>то</text>
        </lyric>
      </note>
      <note default-x="95">
        <pitch>
          <step>F</step>
          <octave>4</octave>
        </pitch>
        <duration>120</duration>
        <voice>1</voice>
        <type>quarter</type>
        <stem default-y="0">up</stem>
        <lyric default-y="-66" number="3">
          <syllabic>end</syllabic>
          <text>ла:</text>
        </lyric>
        <lyric default-y="-87" number="4">
          <syllabic>end</syllabic>
          <text>ва;</text>
        </lyric>
      </note>
      <barline location="right">
        <bar-style>light-heavy</bar-style>
        <repeat direction="backward" winged="none"/>
      </barline>
    </measure>
    <!--=======================================================-->
    <measure number="7" width="153">
      <note default-x="18">
        <pitch>
          <step>G</step>
          <octave>4</octave>
        </pitch>
        <duration>60</duration>
        <voice>1</voice>
        <type>eighth</type>
        <stem default-y="5">up</stem>
        <lyric default-y="-66" number="3">
          <syllabic>begin</syllabic>
          <text>по</text>
        </lyric>
      </note>
      <note default-x="63">
        <pitch>
          <step>G</step>
          <octave>4</octave>
        </pitch>
        <duration>60</duration>
        <voice>1</voice>
        <type>eighth</type>
        <stem default-y="5">up</stem>
        <lyric default-y="-66" number="3">
          <syllabic>middle</syllabic>
          <text>трош</text>
        </lyric>
      </note>
      <note default-x="107">
        <pitch>
          <step>F</step>
          <octave>4</octave>
        </pitch>
        <duration>60</duration>
        <voice>1</voice>
        <type>eighth</type>
        <stem default-y="0">up</stem>
        <lyric default-y="-66" number="3">
          <syllabic>end</syllabic>
          <text>ки.</text>
        </lyric>
      </note>
      <note default-x="136">
        <rest/>
        <duration>60</duration>
        <voice>1</voice>
        <type>eighth</type>
      </note>
    </measure>
    <!--=======================================================-->
    <measure number="8" width="333">
      <barline location="left">
        <bar-style>heavy-light</bar-style>
        <repeat direction="forward" winged="none"/>
      </barline>
      <note default-x="57">
        <pitch>
          <step>A</step>
          <alter>-1</alter>
          <octave>4</octave>
        </pitch>
        <duration>40</duration>
        <voice>1</voice>
        <type>eighth</type>
        <accidental>flat</accidental>
        <time-modification>
          <actual-notes>3</actual-notes>
          <normal-notes>2</normal-notes>
        </time-modification>
        <stem default-y="10">up</stem>
        <notehead>x</notehead>
        <notations>
          <tuplet bracket="yes" number="1" placement="above" type="start"/>
        </notations>
        <lyric default-y="-66" number="3" relative-x="-5">
          <syllabic>single</syllabic>
          <text>4.</text>
          <elision> </elision>
          <syllabic>begin</syllabic>
          <text>Цьо</text>
        </lyric>
      </note>
      <note default-x="98">
        <pitch>
          <step>A</step>
          <alter>-1</alter>
          <octave>4</octave>
        </pitch>
        <duration>40</duration>
        <voice>1</voice>
        <type>eighth</type>
        <time-modification>
          <actual-notes>3</actual-notes>
          <normal-notes>2</normal-notes>
        </time-modification>
        <stem default-y="10">up</stem>
        <notehead>x</notehead>
        <lyric default-y="-66" number="3">
          <syllabic>end</syllabic>
          <text>му</text>
        </lyric>
      </note>
      <note default-x="136">
        <pitch>
          <step>A</step>
          <alter>-1</alter>
          <octave>4</octave>
        </pitch>
        <duration>40</duration>
        <voice>1</voice>
        <type>eighth</type>
        <time-modification>
          <actual-notes>3</actual-notes>
          <normal-notes>2</normal-notes>
        </time-modification>
        <stem default-y="10">up</stem>
        <notehead>x</notehead>
        <notations>
          <tuplet number="1" type="stop"/>
        </notations>
        <lyric default-y="-66" number="3">
          <syllabic>single</syllabic>
          <text>дам,</text>
        </lyric>
      </note>
      <note default-x="176">
        <pitch>
          <step>A</step>
          <alter>-1</alter>
          <octave>4</octave>
        </pitch>
        <duration>40</duration>
        <voice>1</voice>
        <type>eighth</type>
        <time-modification>
          <actual-notes>3</actual-notes>
          <normal-notes>2</normal-notes>
        </time-modification>
        <stem default-y="10">up</stem>
        <notehead>x</notehead>
        <notations>
          <tuplet bracket="yes" number="1" placement="above" type="start"/>
        </notations>
        <lyric default-y="-66" number="3">
          <syllabic>begin</syllabic>
          <text>цьо</text>
        </lyric>
      </note>
      <note default-x="212">
        <pitch>
          <step>A</step>
          <alter>-1</alter>
          <octave>4</octave>
        </pitch>
        <duration>40</duration>
        <voice>1</voice>
        <type>eighth</type>
        <time-modification>
          <actual-notes>3</actual-notes>
          <normal-notes>2</normal-notes>
        </time-modification>
        <stem default-y="10">up</stem>
        <notehead>x</notehead>
        <lyric default-y="-66" number="3">
          <syllabic>end</syllabic>
          <text>му</text>
        </lyric>
      </note>
      <note default-x="249">
        <pitch>
          <step>A</step>
          <alter>-1</alter>
          <octave>4</octave>
        </pitch>
        <duration>40</duration>
        <voice>1</voice>
        <type>eighth</type>
        <time-modification>
          <actual-notes>3</actual-notes>
          <normal-notes>2</normal-notes>
        </time-modification>
        <stem default-y="10">up</stem>
        <notehead>x</notehead>
        <notations>
          <tuplet number="1" type="stop"/>
        </notations>
        <lyric default-y="-66" number="3">
          <syllabic>single</syllabic>
          <text>дам,</text>
        </lyric>
      </note>
      <barline location="right">
        <bar-style>light-heavy</bar-style>
        <repeat direction="backward" winged="none"/>
      </barline>
    </measure>
    <!--=======================================================-->
    <measure number="9" width="498">
      <print new-system="yes">
        <system-layout>
          <system-distance>91</system-distance>
        </system-layout>
      </print>
      <attributes>
        <time>
          <beats>3</beats>
          <beat-type>4</beat-type>
        </time>
      </attributes>
      <note default-x="75">
        <rest>
          <display-step>B</display-step>
          <display-octave>4</display-octave>
        </rest>
        <duration>60</duration>
        <voice>1</voice>
        <type>eighth</type>
      </note>
      <note default-x="92">
        <rest>
          <display-step>B</display-step>
          <display-octave>4</display-octave>
        </rest>
        <duration>30</duration>
        <voice>1</voice>
        <type>16th</type>
      </note>
      <note default-x="125">
        <pitch>
          <step>A</step>
          <alter>-1</alter>
          <octave>4</octave>
        </pitch>
        <duration>30</duration>
        <voice>1</voice>
        <type>16th</type>
        <accidental>flat</accidental>
        <stem default-y="10">up</stem>
        <notehead>x</notehead>
        <lyric default-y="-66" number="3">
          <syllabic>single</syllabic>
          <text>а</text>
        </lyric>
      </note>
      <note default-x="168">
        <pitch>
          <step>A</step>
          <alter>-1</alter>
          <octave>4</octave>
        </pitch>
        <duration>24</duration>
        <voice>1</voice>
        <type>16th</type>
        <time-modification>
          <actual-notes>5</actual-notes>
          <normal-notes>4</normal-notes>
        </time-modification>
        <stem default-y="10">up</stem>
        <notehead>x</notehead>
        <notations>
          <tuplet bracket="yes" number="1" placement="above" type="start"/>
        </notations>
        <lyric default-y="-66" number="3">
          <syllabic>begin</syllabic>
          <text>цьо</text>
        </lyric>
      </note>
      <note default-x="211">
        <pitch>
          <step>A</step>
          <alter>-1</alter>
          <octave>4</octave>
        </pitch>
        <duration>24</duration>
        <voice>1</voice>
        <type>16th</type>
        <time-modification>
          <actual-notes>5</actual-notes>
          <normal-notes>4</normal-notes>
        </time-modification>
        <stem default-y="10">up</stem>
        <notehead>x</notehead>
        <lyric default-y="-66" number="3">
          <syllabic>end</syllabic>
          <text>му</text>
        </lyric>
      </note>
      <note default-x="244">
        <pitch>
          <step>A</step>
          <alter>-1</alter>
          <octave>4</octave>
        </pitch>
        <duration>24</duration>
        <voice>1</voice>
        <type>16th</type>
        <time-modification>
          <actual-notes>5</actual-notes>
          <normal-notes>4</normal-notes>
        </time-modification>
        <stem default-y="10">up</stem>
        <notehead>x</notehead>
        <lyric default-y="-66" number="3">
          <syllabic>begin</syllabic>
          <text>го</text>
        </lyric>
      </note>
      <note default-x="280">
        <pitch>
          <step>A</step>
          <alter>-1</alter>
          <octave>4</octave>
        </pitch>
        <duration>24</duration>
        <voice>1</voice>
        <type>16th</type>
        <time-modification>
          <actual-notes>5</actual-notes>
          <normal-notes>4</normal-notes>
        </time-modification>
        <stem default-y="10">up</stem>
        <notehead>x</notehead>
        <lyric default-y="-66" number="3">
          <syllabic>middle</syllabic>
          <text>ло</text>
        </lyric>
      </note>
      <note default-x="313">
        <pitch>
          <step>A</step>
          <alter>-1</alter>
          <octave>4</octave>
        </pitch>
        <duration>24</duration>
        <voice>1</voice>
        <type>16th</type>
        <time-modification>
          <actual-notes>5</actual-notes>
          <normal-notes>4</normal-notes>
        </time-modification>
        <stem default-y="10">up</stem>
        <notehead>x</notehead>
        <notations>
          <tuplet number="1" type="stop"/>
        </notations>
        <lyric default-y="-66" number="3">
          <syllabic>end</syllabic>
          <text>ву</text>
        </lyric>
      </note>
      <note default-x="371">
        <pitch>
          <step>C</step>
          <octave>5</octave>
        </pitch>
        <duration>60</duration>
        <voice>1</voice>
        <type>eighth</type>
        <stem default-y="-50">down</stem>
        <notehead>x</notehead>
        <lyric default-y="-66" number="3">
          <syllabic>single</syllabic>
          <text>круть,</text>
        </lyric>
      </note>
      <note default-x="434">
        <pitch>
          <step>C</step>
          <octave>5</octave>
        </pitch>
        <duration>60</duration>
        <voice>1</voice>
        <type>eighth</type>
        <stem default-y="-50">down</stem>
        <notehead>x</notehead>
        <lyric default-y="-66" number="3">
          <syllabic>single</syllabic>
          <text>круть!</text>
        </lyric>
      </note>
      <barline location="right">
        <bar-style>light-heavy</bar-style>
      </barline>
    </measure>
    <!--=======================================================-->
    <measure number="10" width="343">
      <note default-x="17">
        <pitch>
          <step>F</step>
          <octave>5</octave>
        </pitch>
        <duration>60</duration>
        <voice>1</voice>
        <type>eighth</type>
        <stem default-y="-35">down</stem>
        <notehead>x</notehead>
        <lyric default-y="-66" number="3" relative-x="-7">
          <syllabic>single</syllabic>
          <text>5.</text>
          <elision> </elision>
          <syllabic>single</syllabic>
          <text>Гей,</text>
        </lyric>
      </note>
      <note default-x="64">
        <pitch>
          <step>F</step>
          <octave>5</octave>
        </pitch>
        <duration>60</duration>
        <voice>1</voice>
        <type>eighth</type>
        <stem default-y="-35">down</stem>
        <notehead>x</notehead>
        <notations>
          <glissando line-type="wavy" number="1" type="start"/>
        </notations>
        <lyric default-y="-66" number="3" relative-x="-5">
          <syllabic>single</syllabic>
          <text>гей,</text>
        </lyric>
      </note>
      <note print-lyric="yes" print-object="no" print-spacing="yes">
        <cue/>
        <pitch>
          <step>C</step>
          <octave>5</octave>
        </pitch>
        <duration>15</duration>
        <voice>1</voice>
        <type size="full">32nd</type>
        <stem>down</stem>
        <beam number="1">begin</beam>
        <beam number="2">begin</beam>
        <beam number="3">begin</beam>
        <lyric default-y="-66" number="3" relative-x="-44">
          <syllabic>begin</syllabic>
          <text>по</text>
        </lyric>
      </note>
      <note print-lyric="yes" print-object="no" print-spacing="yes">
        <cue/>
        <pitch>
          <step>C</step>
          <octave>5</octave>
        </pitch>
        <duration>15</duration>
        <voice>1</voice>
        <type size="full">32nd</type>
        <stem>down</stem>
        <beam number="1">continue</beam>
        <beam number="2">continue</beam>
        <beam number="3">continue</beam>
        <lyric default-y="-66" number="3" relative-x="-33">
          <syllabic>middle</syllabic>
          <text>ле</text>
        </lyric>
      </note>
      <note print-lyric="yes" print-object="no" print-spacing="yes">
        <cue/>
        <pitch>
          <step>C</step>
          <octave>5</octave>
        </pitch>
        <duration>15</duration>
        <voice>1</voice>
        <type size="full">32nd</type>
        <stem>down</stem>
        <beam number="1">continue</beam>
        <beam number="2">continue</beam>
        <beam number="3">continue</beam>
        <lyric default-y="-66" number="3" relative-x="-27">
          <syllabic>middle</syllabic>
          <text>ті</text>
        </lyric>
      </note>
      <note print-lyric="yes" print-object="no" print-spacing="yes">
        <cue/>
        <pitch>
          <step>C</step>
          <octave>5</octave>
        </pitch>
        <duration>15</duration>
        <voice>1</voice>
        <type size="full">32nd</type>
        <stem>down</stem>
        <beam number="1">continue</beam>
        <beam number="2">continue</beam>
        <beam number="3">continue</beam>
        <lyric default-y="-66" number="3" relative-x="-14">
          <syllabic>end</syllabic>
          <text>ли,</text>
        </lyric>
      </note>
      <note print-lyric="yes" print-object="no" print-spacing="yes">
        <cue/>
        <pitch>
          <step>C</step>
          <octave>5</octave>
        </pitch>
        <duration>15</duration>
        <voice>1</voice>
        <type size="full">32nd</type>
        <stem>down</stem>
        <beam number="1">continue</beam>
        <beam number="2">continue</beam>
        <beam number="3">continue</beam>
        <lyric default-y="-66" number="3" relative-x="-4">
          <syllabic>single</syllabic>
          <text>на</text>
        </lyric>
      </note>
      <note print-lyric="yes" print-object="no" print-spacing="yes">
        <cue/>
        <pitch>
          <step>C</step>
          <octave>5</octave>
        </pitch>
        <duration>15</duration>
        <voice>1</voice>
        <type size="full">32nd</type>
        <stem>down</stem>
        <beam number="1">continue</beam>
        <beam number="2">continue</beam>
        <beam number="3">continue</beam>
        <lyric default-y="-66" number="3" relative-x="5">
          <syllabic>begin</syllabic>
          <text>го</text>
        </lyric>
      </note>
      <note print-lyric="yes" print-object="no" print-spacing="yes">
        <cue/>
        <pitch>
          <step>C</step>
          <octave>5</octave>
        </pitch>
        <duration>15</duration>
        <voice>1</voice>
        <type size="full">32nd</type>
        <stem>down</stem>
        <beam number="1">continue</beam>
        <beam number="2">continue</beam>
        <beam number="3">continue</beam>
        <lyric default-y="-65" number="3" relative-x="18">
          <syllabic>middle</syllabic>
          <text>лов</text>
        </lyric>
      </note>
      <note print-lyric="yes" print-object="no" print-spacing="yes">
        <cue/>
        <pitch>
          <step>C</step>
          <octave>5</octave>
        </pitch>
        <duration>15</duration>
        <voice>1</voice>
        <type size="full">32nd</type>
        <stem>down</stem>
        <beam number="1">end</beam>
        <beam number="2">end</beam>
        <beam number="3">end</beam>
        <lyric default-y="-66" number="3" relative-x="34">
          <syllabic>end</syllabic>
          <text>ку</text>
        </lyric>
      </note>
      <note default-x="286">
        <pitch>
          <step>F</step>
          <octave>4</octave>
        </pitch>
        <duration>60</duration>
        <voice>1</voice>
        <type>eighth</type>
        <stem default-y="0">up</stem>
        <notehead>x</notehead>
        <notations>
          <glissando line-type="wavy" number="1" type="stop"/>
        </notations>
        <lyric default-y="-66" number="3">
          <syllabic>begin</syllabic>
          <text>сі</text>
        </lyric>
      </note>
      <note default-x="311">
        <pitch>
          <step>F</step>
          <octave>4</octave>
        </pitch>
        <duration>60</duration>
        <voice>1</voice>
        <type>eighth</type>
        <stem default-y="0">up</stem>
        <notehead>x</notehead>
        <lyric default-y="-66" number="3" relative-x="8">
          <syllabic>end</syllabic>
          <text>ли!</text>
        </lyric>
      </note>
      <barline location="right">
        <bar-style>light-heavy</bar-style>
      </barline>
    </measure>
  </part>
  <!--=========================================================-->
</score-partwise>
