<?xml version="1.0" encoding="UTF-8" standalone="no"?>
<!DOCTYPE score-partwise PUBLIC "-//Recordare//DTD MusicXML 4.0 Partwise//EN" "http://www.musicxml.org/dtds/partwise.dtd">
<score-partwise version="4.0">
  <identification>
    <encoding>
      <software>Finale v27.3 for Windows</software>
      <encoding-date>2025-01-23</encoding-date>
      <supports attribute="new-system" element="print" type="yes" value="yes"/>
      <supports attribute="new-page" element="print" type="yes" value="yes"/>
      <supports element="accidental" type="yes"/>
      <supports element="beam" type="yes"/>
      <supports element="stem" type="yes"/>
    </encoding>
  </identification>
  <defaults>
    <scaling>
      <millimeters>8.4667</millimeters>
      <tenths>40</tenths>
    </scaling>
    <page-layout>
      <page-height>1320</page-height>
      <page-width>1020</page-width>
      <page-margins type="both">
        <left-margin>60</left-margin>
        <right-margin>60</right-margin>
        <top-margin>60</top-margin>
        <bottom-margin>60</bottom-margin>
      </page-margins>
    </page-layout>
    <system-layout>
      <system-margins>
        <left-margin>0</left-margin>
        <right-margin>0</right-margin>
      </system-margins>
      <system-distance>110</system-distance>
      <top-system-distance>67</top-system-distance>
    </system-layout>
    <appearance>
      <line-width type="stem">0.7682</line-width>
      <line-width type="beam">5</line-width>
      <line-width type="staff">0.7682</line-width>
      <line-width type="light barline">0.7682</line-width>
      <line-width type="heavy barline">5</line-width>
      <line-width type="leger">0.7682</line-width>
      <line-width type="ending">0.7682</line-width>
      <line-width type="wedge">0.7682</line-width>
      <line-width type="enclosure">0.7682</line-width>
      <line-width type="tuplet bracket">0.7682</line-width>
      <note-size type="grace">50</note-size>
      <note-size type="cue">50</note-size>
      <distance type="hyphen">60</distance>
      <distance type="beam">7.5</distance>
    </appearance>
    <music-font font-family="Finale Maestro,engraved" font-size="24"/>
    <word-font font-family="Times New Roman" font-size="12"/>
    <lyric-font font-family="Times New Roman" font-size="12"/>
  </defaults>
  <credit page="1">
    <credit-words default-x="330" default-y="1261" font-size="19" valign="top">514. Ой виїхав козаченько (07-БР-01)</credit-words>
  </credit>
  <credit page="1">
    <credit-words default-x="135" default-y="923" font-size="14" valign="top" xml:space="preserve">1. Ой виїхав козаченько 
На войовання,
Лишив жінку Маріяну, 
Як мальовання.*
2. Ой виїхав козаченько 
На гору круту,
Пустив коня вороного 
В шовкову траву.
3. Пустив коня вороного 
В шовкову траву,
А сам пішов та ліг спати 
В большу й долину.
4. Ой спить козак молоденький, 
Сниться йому сон,
Що й з правого рукавчика 
Вилетів сокол.
5. Що й з правого рукавчика 
Вилетів сокол,
А з лівого, з–під білого – 
Сивая птиця.
6. Ой зірвався козаченько 
На білі ніжки,
Побіг, побіг козаченько 
Аж до воріжки.
7. – Ворожечко, гадайочко, 
Вгадай мені сон,
Що й з правого рукавчика 
Вилетів сокол.</credit-words>
  </credit>
  <credit page="1">
    <credit-words default-x="132" default-y="121" valign="top" xml:space="preserve">Зап. 28 липня 1986 р. Дмитренко М. К. у с. Яхнівці Волочиського р-ну Хмельницької обл. від 
Щесняк Н. І., 1937 р. н. Нотація Єфремової Л. О.</credit-words>
  </credit>
  <credit page="1">
    <credit-words default-x="123" default-y="82" valign="top">* Другу половину кожної строфи співають двічі. (Л. Є.)</credit-words>
  </credit>
  <credit page="1">
    <credit-words default-x="324" default-y="1219" valign="top">132</credit-words>
  </credit>
  <credit page="1">
    <credit-words default-x="555" default-y="924" font-size="14" valign="top" xml:space="preserve">8. Що й з правого рукавчика 
Вилетів сокол,
А з лівого, з-під білого – 
Сивая птиця.
9. – Козаченько молоденький, 
Я ті вгадаю,
Якщо твій сон не справдиться, 
Головой наложу.
10. Твоя жінка Маріяна 
Сина родила,
В третім часу попівночі 
Життя скінчила.
11. Ой виїхав козаченько 
На круту гору,
Нігде світла не видати, 
Но в його дому.
12. Ой під’їхав козаченько 
Під білую хать,
Лежить жінка Маріяна 
На всю кровать.
13. – Ой встань, жінко Маріяно, 
Ой встань, не лежи,
Як заплаче син маленький, 
На руки візьми.
14. – Ой рада б я, мій миленький, 
Ой рада б я встать,
Сира земля грудь накрила, 
Не можу піднять.</credit-words>
  </credit>
  <part-list>
    <score-part id="P1">
      <part-name print-object="no">MusicXML Part</part-name>
      <group>score</group>
      <score-instrument id="P1-I1">
        <instrument-name>Čķńņšóģåķņ 1</instrument-name>
      </score-instrument>
      <midi-instrument id="P1-I1">
        <midi-channel>1</midi-channel>
        <midi-program>1</midi-program>
        <volume>80</volume>
        <pan>0</pan>
      </midi-instrument>
    </score-part>
  </part-list>
  <!--=========================================================-->
  <part id="P1">
    <measure number="1" width="508">
      <print>
        <page-layout>
          <page-height>1320</page-height>
          <page-width>1020</page-width>
          <page-margins>
            <left-margin>122</left-margin>
            <right-margin>60</right-margin>
            <top-margin>60</top-margin>
            <bottom-margin>60</bottom-margin>
          </page-margins>
        </page-layout>
        <system-layout>
          <system-margins>
            <left-margin>52</left-margin>
            <right-margin>0</right-margin>
          </system-margins>
          <top-system-distance>75</top-system-distance>
        </system-layout>
        <measure-numbering>none</measure-numbering>
      </print>
      <attributes>
        <divisions>4</divisions>
        <key>
          <fifths>-5</fifths>
          <mode>major</mode>
        </key>
        <time>
          <beats>11</beats>
          <beat-type>8</beat-type>
        </time>
        <clef>
          <sign>G</sign>
          <line>2</line>
        </clef>
      </attributes>
      <sound tempo="132">
        <swing>
          <straight/>
        </swing>
      </sound>
      <direction directive="yes" placement="above" system="only-top">
        <direction-type>
          <symbol default-y="16" font-family="Finale Maestro" font-size="18">metNoteQuarterUp</symbol>
          <words font-family="Times New Roman" font-size="14" font-weight="bold"> = </words>
        </direction-type>
      </direction>
      <note default-x="158">
        <pitch>
          <step>B</step>
          <alter>-1</alter>
          <octave>3</octave>
        </pitch>
        <duration>2</duration>
        <voice>1</voice>
        <type>eighth</type>
        <stem default-y="-20">up</stem>
        <lyric default-y="-82" number="1">
          <syllabic>single</syllabic>
          <text>1.</text>
          <elision> </elision>
          <syllabic>begin</syllabic>
          <text>Ой</text>
        </lyric>
      </note>
      <note default-x="200">
        <pitch>
          <step>F</step>
          <octave>4</octave>
        </pitch>
        <duration>4</duration>
        <voice>1</voice>
        <type>quarter</type>
        <stem default-y="0">up</stem>
        <lyric default-y="-82" number="1">
          <syllabic>middle</syllabic>
          <text>ви</text>
        </lyric>
      </note>
      <note default-x="248">
        <pitch>
          <step>G</step>
          <alter>-1</alter>
          <octave>4</octave>
        </pitch>
        <duration>2</duration>
        <voice>1</voice>
        <type>eighth</type>
        <stem default-y="5">up</stem>
        <lyric default-y="-82" number="1">
          <syllabic>middle</syllabic>
          <text>ї</text>
        </lyric>
      </note>
      <note default-x="287">
        <pitch>
          <step>F</step>
          <octave>4</octave>
        </pitch>
        <duration>2</duration>
        <voice>1</voice>
        <type>eighth</type>
        <stem default-y="0">up</stem>
        <lyric default-y="-82" number="1">
          <syllabic>end</syllabic>
          <text>хав</text>
        </lyric>
      </note>
      <note default-x="324">
        <pitch>
          <step>E</step>
          <alter>-1</alter>
          <octave>4</octave>
        </pitch>
        <duration>2</duration>
        <voice>1</voice>
        <type>eighth</type>
        <stem default-y="-5">up</stem>
        <lyric default-y="-82" number="1">
          <syllabic>begin</syllabic>
          <text>ко</text>
        </lyric>
      </note>
      <note default-x="359">
        <pitch>
          <step>D</step>
          <alter>-1</alter>
          <octave>4</octave>
        </pitch>
        <duration>2</duration>
        <voice>1</voice>
        <type>eighth</type>
        <stem default-y="-10">up</stem>
        <lyric default-y="-82" number="1">
          <syllabic>middle</syllabic>
          <text>за</text>
        </lyric>
      </note>
      <note default-x="401">
        <pitch>
          <step>C</step>
          <octave>4</octave>
        </pitch>
        <duration>2</duration>
        <voice>1</voice>
        <type>eighth</type>
        <stem default-y="-15">up</stem>
        <lyric default-y="-82" number="1">
          <syllabic>middle</syllabic>
          <text>чень</text>
        </lyric>
      </note>
      <note default-x="443">
        <pitch>
          <step>B</step>
          <alter>-1</alter>
          <octave>3</octave>
        </pitch>
        <duration>6</duration>
        <voice>1</voice>
        <type>quarter</type>
        <dot/>
        <stem default-y="-20">up</stem>
        <lyric default-y="-82" number="1">
          <syllabic>end</syllabic>
          <text>ко/</text>
        </lyric>
      </note>
    </measure>
    <!--=======================================================-->
    <measure number="2" width="278">
      <attributes>
        <time>
          <beats>9</beats>
          <beat-type>8</beat-type>
        </time>
      </attributes>
      <note default-x="45">
        <pitch>
          <step>D</step>
          <alter>-1</alter>
          <octave>4</octave>
        </pitch>
        <duration>2</duration>
        <voice>1</voice>
        <type>eighth</type>
        <stem default-y="-10">up</stem>
        <lyric default-y="-82" number="1">
          <syllabic>single</syllabic>
          <text>на</text>
        </lyric>
      </note>
      <note default-x="77">
        <pitch>
          <step>F</step>
          <octave>4</octave>
        </pitch>
        <duration>4</duration>
        <voice>1</voice>
        <type>quarter</type>
        <stem default-y="0">up</stem>
        <lyric default-y="-82" number="1">
          <syllabic>begin</syllabic>
          <text>во</text>
        </lyric>
      </note>
      <note default-x="123">
        <pitch>
          <step>G</step>
          <alter>-1</alter>
          <octave>4</octave>
        </pitch>
        <duration>2</duration>
        <voice>1</voice>
        <type>eighth</type>
        <stem default-y="5">up</stem>
        <lyric default-y="-82" number="1">
          <syllabic>middle</syllabic>
          <text>йо</text>
        </lyric>
      </note>
      <note default-x="154">
        <pitch>
          <step>F</step>
          <octave>4</octave>
        </pitch>
        <duration>2</duration>
        <voice>1</voice>
        <type>eighth</type>
        <stem default-y="0">up</stem>
        <lyric default-y="-82" number="1">
          <syllabic>middle</syllabic>
          <text>ва</text>
        </lyric>
      </note>
      <direction placement="below">
        <direction-type>
          <words default-y="-11">1</words>
        </direction-type>
      </direction>
      <note default-x="186">
        <pitch>
          <step>C</step>
          <octave>4</octave>
        </pitch>
        <duration>6</duration>
        <voice>1</voice>
        <type>quarter</type>
        <dot/>
        <stem default-y="-15">up</stem>
        <notations>
          <slur bezier-x="16" bezier-y="-16" default-x="6" default-y="-60" number="1" placement="below" type="start"/>
        </notations>
        <lyric default-y="-82" number="1" relative-x="12">
          <syllabic>end</syllabic>
          <text>ння,/</text>
        </lyric>
      </note>
      <note default-x="247">
        <pitch>
          <step>B</step>
          <alter>-1</alter>
          <octave>3</octave>
        </pitch>
        <duration>2</duration>
        <voice>1</voice>
        <type>eighth</type>
        <stem default-y="-20">up</stem>
        <notations>
          <slur bezier-x="-18" bezier-y="-13" default-x="6" default-y="-65" number="1" type="stop"/>
        </notations>
      </note>
    </measure>
    <!--=======================================================-->
    <measure number="3" width="527">
      <print new-system="yes">
        <system-layout>
          <system-distance>59</system-distance>
        </system-layout>
      </print>
      <barline location="left">
        <bar-style>heavy-light</bar-style>
        <repeat direction="forward" winged="none"/>
      </barline>
      <note default-x="134">
        <pitch>
          <step>D</step>
          <alter>-1</alter>
          <octave>4</octave>
        </pitch>
        <duration>2</duration>
        <voice>1</voice>
        <type>eighth</type>
        <stem default-y="-10">up</stem>
        <lyric default-y="-75" number="1">
          <syllabic>begin</syllabic>
          <text>ли</text>
        </lyric>
      </note>
      <note default-x="180">
        <pitch>
          <step>F</step>
          <octave>4</octave>
        </pitch>
        <duration>4</duration>
        <voice>1</voice>
        <type>quarter</type>
        <stem default-y="0">up</stem>
        <lyric default-y="-75" number="1">
          <syllabic>end</syllabic>
          <text>шив</text>
        </lyric>
      </note>
      <note default-x="253">
        <pitch>
          <step>G</step>
          <alter>-1</alter>
          <octave>4</octave>
        </pitch>
        <duration>2</duration>
        <voice>1</voice>
        <type>eighth</type>
        <stem default-y="5">up</stem>
        <lyric default-y="-75" number="1">
          <syllabic>begin</syllabic>
          <text>жін</text>
        </lyric>
      </note>
      <note default-x="298">
        <pitch>
          <step>F</step>
          <octave>4</octave>
        </pitch>
        <duration>2</duration>
        <voice>1</voice>
        <type>eighth</type>
        <stem default-y="0">up</stem>
        <lyric default-y="-75" number="1">
          <syllabic>end</syllabic>
          <text>ку</text>
        </lyric>
      </note>
      <note default-x="344">
        <pitch>
          <step>F</step>
          <octave>4</octave>
        </pitch>
        <duration>2</duration>
        <voice>1</voice>
        <type>eighth</type>
        <stem default-y="0">up</stem>
        <lyric default-y="-75" number="1">
          <syllabic>begin</syllabic>
          <text>Ма</text>
        </lyric>
      </note>
      <note default-x="390">
        <pitch>
          <step>E</step>
          <alter>-1</alter>
          <octave>4</octave>
        </pitch>
        <duration>2</duration>
        <voice>1</voice>
        <type>eighth</type>
        <stem default-y="-5">up</stem>
        <lyric default-y="-75" number="1">
          <syllabic>middle</syllabic>
          <text>рі</text>
        </lyric>
      </note>
      <direction placement="below">
        <direction-type>
          <words default-y="-5">2</words>
        </direction-type>
      </direction>
      <note default-x="435">
        <pitch>
          <step>F</step>
          <octave>4</octave>
        </pitch>
        <duration>2</duration>
        <voice>1</voice>
        <type>eighth</type>
        <stem default-y="0">up</stem>
        <lyric default-y="-75" number="1">
          <syllabic>middle</syllabic>
          <text>ян</text>
        </lyric>
      </note>
      <note default-x="480">
        <pitch>
          <step>D</step>
          <alter>-1</alter>
          <octave>4</octave>
        </pitch>
        <duration>2</duration>
        <voice>1</voice>
        <type>eighth</type>
        <stem default-y="-10">up</stem>
        <lyric default-y="-75" number="1">
          <syllabic>end</syllabic>
          <text>ку,/</text>
        </lyric>
      </note>
    </measure>
    <!--=======================================================-->
    <measure number="4" width="311">
      <direction placement="below">
        <direction-type>
          <words default-y="-11">3</words>
        </direction-type>
      </direction>
      <note default-x="16">
        <pitch>
          <step>B</step>
          <alter>-1</alter>
          <octave>3</octave>
        </pitch>
        <duration>2</duration>
        <voice>1</voice>
        <type>eighth</type>
        <stem default-y="-20">up</stem>
        <lyric default-y="-75" number="1">
          <syllabic>single</syllabic>
          <text>як</text>
        </lyric>
      </note>
      <note default-x="55">
        <pitch>
          <step>D</step>
          <alter>-1</alter>
          <octave>4</octave>
        </pitch>
        <duration>4</duration>
        <voice>1</voice>
        <type>quarter</type>
        <stem default-y="-10">up</stem>
        <lyric default-y="-75" number="1">
          <syllabic>begin</syllabic>
          <text>ма</text>
        </lyric>
      </note>
      <note default-x="116">
        <pitch>
          <step>E</step>
          <alter>-1</alter>
          <octave>4</octave>
        </pitch>
        <duration>2</duration>
        <voice>1</voice>
        <type>eighth</type>
        <stem default-y="-5">up</stem>
        <lyric default-y="-75" number="1">
          <syllabic>middle</syllabic>
          <text>льо</text>
        </lyric>
      </note>
      <direction placement="below">
        <direction-type>
          <words default-y="-17">4</words>
        </direction-type>
      </direction>
      <note default-x="155">
        <pitch>
          <step>C</step>
          <octave>4</octave>
        </pitch>
        <duration>2</duration>
        <voice>1</voice>
        <type>eighth</type>
        <stem default-y="-15">up</stem>
        <lyric default-y="-75" number="1">
          <syllabic>middle</syllabic>
          <text>ван</text>
        </lyric>
      </note>
      <note default-x="193">
        <pitch>
          <step>B</step>
          <alter>-1</alter>
          <octave>3</octave>
        </pitch>
        <duration>8</duration>
        <voice>1</voice>
        <type>half</type>
        <stem default-y="-20">up</stem>
        <lyric default-y="-75" number="1">
          <syllabic>end</syllabic>
          <text>ня.</text>
        </lyric>
      </note>
      <barline location="right">
        <bar-style>light-heavy</bar-style>
        <repeat direction="backward" winged="none"/>
      </barline>
    </measure>
    <!--=======================================================-->
    <measure number="5" width="238">
      <print new-system="yes">
        <system-layout>
          <system-distance>59</system-distance>
        </system-layout>
      </print>
      <direction placement="below">
        <direction-type>
          <words default-y="-3">1</words>
        </direction-type>
      </direction>
      <note default-x="119">
        <pitch>
          <step>C</step>
          <octave>4</octave>
        </pitch>
        <duration>8</duration>
        <voice>1</voice>
        <type>half</type>
        <stem default-y="-15">up</stem>
      </note>
      <barline location="right">
        <bar-style>light-light</bar-style>
      </barline>
    </measure>
    <!--=======================================================-->
    <measure number="6" width="93">
      <direction placement="above">
        <direction-type>
          <words default-y="0">2</words>
        </direction-type>
      </direction>
      <note default-x="12">
        <pitch>
          <step>F</step>
          <octave>4</octave>
        </pitch>
        <duration>1</duration>
        <voice>1</voice>
        <type>16th</type>
        <stem default-y="0">up</stem>
        <beam number="1">begin</beam>
        <beam number="2">begin</beam>
        <notations>
          <slur bezier-x="9" bezier-y="-12" default-x="6" default-y="-45" number="1" placement="below" type="start"/>
        </notations>
      </note>
      <note default-x="49">
        <pitch>
          <step>E</step>
          <alter>-1</alter>
          <octave>4</octave>
        </pitch>
        <duration>1</duration>
        <voice>1</voice>
        <type>16th</type>
        <stem default-y="-5">up</stem>
        <beam number="1">end</beam>
        <beam number="2">end</beam>
        <notations>
          <slur bezier-x="-12" bezier-y="-9" default-x="6" default-y="-50" number="1" type="stop"/>
        </notations>
      </note>
      <barline location="right">
        <bar-style>light-light</bar-style>
      </barline>
    </measure>
    <!--=======================================================-->
    <measure number="7" width="403">
      <direction placement="below">
        <direction-type>
          <words default-y="-6">3</words>
        </direction-type>
      </direction>
      <note default-x="15">
        <pitch>
          <step>B</step>
          <alter>-1</alter>
          <octave>3</octave>
        </pitch>
        <duration>2</duration>
        <voice>1</voice>
        <type>eighth</type>
        <stem default-y="-20">up</stem>
      </note>
      <note default-x="61">
        <pitch>
          <step>D</step>
          <alter>-1</alter>
          <octave>4</octave>
        </pitch>
        <duration>4</duration>
        <voice>1</voice>
        <type>quarter</type>
        <stem default-y="-10">up</stem>
      </note>
      <note default-x="136">
        <pitch>
          <step>E</step>
          <alter>-1</alter>
          <octave>4</octave>
        </pitch>
        <duration>2</duration>
        <voice>1</voice>
        <type>eighth</type>
        <stem default-y="-5">up</stem>
      </note>
      <note default-x="182">
        <pitch>
          <step>D</step>
          <alter>-1</alter>
          <octave>4</octave>
        </pitch>
        <duration>2</duration>
        <voice>1</voice>
        <type>eighth</type>
        <stem default-y="-10">up</stem>
      </note>
      <note default-x="229">
        <pitch>
          <step>C</step>
          <octave>4</octave>
        </pitch>
        <duration>2</duration>
        <voice>1</voice>
        <type>eighth</type>
        <stem default-y="-15">up</stem>
      </note>
      <note default-x="275">
        <pitch>
          <step>B</step>
          <alter>-1</alter>
          <octave>3</octave>
        </pitch>
        <duration>8</duration>
        <voice>1</voice>
        <type>half</type>
        <stem default-y="-20">up</stem>
      </note>
      <barline location="right">
        <bar-style>light-light</bar-style>
      </barline>
    </measure>
    <!--=======================================================-->
    <measure number="8" width="104">
      <direction placement="below">
        <direction-type>
          <words default-y="-6">4</words>
        </direction-type>
      </direction>
      <note default-x="12">
        <pitch>
          <step>D</step>
          <alter>-1</alter>
          <octave>4</octave>
        </pitch>
        <duration>1</duration>
        <voice>1</voice>
        <type>16th</type>
        <stem default-y="-10">up</stem>
        <beam number="1">begin</beam>
        <beam number="2">begin</beam>
        <notations>
          <slur bezier-x="10" bezier-y="-12" default-x="6" default-y="-55" number="1" placement="below" type="start"/>
        </notations>
      </note>
      <note default-x="53">
        <pitch>
          <step>C</step>
          <octave>4</octave>
        </pitch>
        <duration>1</duration>
        <voice>1</voice>
        <type>16th</type>
        <stem default-y="-15">up</stem>
        <beam number="1">end</beam>
        <beam number="2">end</beam>
        <notations>
          <slur bezier-x="-13" bezier-y="-10" default-x="6" default-y="-60" number="1" type="stop"/>
        </notations>
      </note>
      <barline location="right">
        <bar-style>light-heavy</bar-style>
      </barline>
    </measure>
  </part>
  <!--=========================================================-->
</score-partwise>
