<?xml version="1.0" encoding="UTF-8" standalone="no"?>
<!DOCTYPE score-partwise PUBLIC "-//Recordare//DTD MusicXML 4.0 Partwise//EN" "http://www.musicxml.org/dtds/partwise.dtd">
<score-partwise version="4.0">
  <identification>
    <encoding>
      <software>Finale v27.3 for Windows</software>
      <encoding-date>2025-08-20</encoding-date>
      <supports attribute="new-system" element="print" type="yes" value="yes"/>
      <supports attribute="new-page" element="print" type="yes" value="yes"/>
      <supports element="accidental" type="yes"/>
      <supports element="beam" type="yes"/>
      <supports element="stem" type="yes"/>
    </encoding>
  </identification>
  <defaults>
    <scaling>
      <millimeters>8.4667</millimeters>
      <tenths>40</tenths>
    </scaling>
    <page-layout>
      <page-height>1320</page-height>
      <page-width>1020</page-width>
      <page-margins type="both">
        <left-margin>60</left-margin>
        <right-margin>60</right-margin>
        <top-margin>60</top-margin>
        <bottom-margin>60</bottom-margin>
      </page-margins>
    </page-layout>
    <system-layout>
      <system-margins>
        <left-margin>0</left-margin>
        <right-margin>0</right-margin>
      </system-margins>
      <system-distance>110</system-distance>
      <top-system-distance>67</top-system-distance>
    </system-layout>
    <appearance>
      <line-width type="stem">0.7682</line-width>
      <line-width type="beam">5</line-width>
      <line-width type="staff">0.7682</line-width>
      <line-width type="light barline">0.7682</line-width>
      <line-width type="heavy barline">5</line-width>
      <line-width type="leger">0.7682</line-width>
      <line-width type="ending">0.7682</line-width>
      <line-width type="wedge">0.7682</line-width>
      <line-width type="enclosure">0.7682</line-width>
      <line-width type="tuplet bracket">0.7682</line-width>
      <note-size type="grace">50</note-size>
      <note-size type="cue">50</note-size>
      <distance type="hyphen">60</distance>
      <distance type="beam">7.5</distance>
    </appearance>
    <music-font font-family="Maestro,engraved" font-size="24"/>
    <word-font font-family="Times New Roman" font-size="12"/>
    <lyric-font font-family="Times New Roman" font-size="12"/>
  </defaults>
  <credit page="1">
    <credit-words default-x="300" default-y="1264" font-size="19" valign="top">807. Сів сокіл на ялині (02-ЛР-05)</credit-words>
  </credit>
  <credit page="1">
    <credit-words default-x="100" default-y="1001" font-size="17" valign="top" xml:space="preserve">1. Сів сокіл на ялині,
Десь мій рід на чужині,
Віддали мене,
Не були в мене,
Десь то їм не жаль мене.</credit-words>
  </credit>
  <credit page="1">
    <credit-words default-x="93" default-y="811" valign="top" xml:space="preserve">Зап. 1937 р. Стельмах М., Музиченко Д. (мел.) у с. Дяківці Літинського р-ну Вінницької обл. від 
Дарки Поріцької. – ІМФЕ, ф. 8-3, од. зб. 211, арк. 8 зв.-9 (текст), арк. 28 зв. (мел.), № 13.</credit-words>
  </credit>
  <credit page="1">
    <credit-words default-x="416" default-y="999" font-size="17" valign="top" xml:space="preserve">2. Чую я через люди:
Батенько в гостях буде,
Батенько їде,
Браму минає,
Дочка хліба не має.</credit-words>
  </credit>
  <credit page="1">
    <credit-words default-x="723" default-y="1000" font-size="17" valign="top" xml:space="preserve">3. – Я хліба загорую,
Горілки наборгую,
Приїдь батенько,
Приїдь, рідненький,
Напою й нагодую.</credit-words>
  </credit>
  <credit page="1">
    <credit-words default-x="531" default-y="45" valign="top">522</credit-words>
  </credit>
  <part-list>
    <score-part id="P1">
      <part-name print-object="no">MusicXML Part</part-name>
      <group>score</group>
      <score-instrument id="P1-I1">
        <instrument-name>Èíñòðóìåíò 1</instrument-name>
      </score-instrument>
      <midi-instrument id="P1-I1">
        <midi-channel>1</midi-channel>
        <midi-program>1</midi-program>
        <volume>80</volume>
        <pan>0</pan>
      </midi-instrument>
    </score-part>
  </part-list>
  <!--=========================================================-->
  <part id="P1">
    <measure number="1" width="274">
      <print>
        <page-layout>
          <page-height>1320</page-height>
          <page-width>1020</page-width>
          <page-margins>
            <left-margin>119</left-margin>
            <right-margin>60</right-margin>
            <top-margin>60</top-margin>
            <bottom-margin>60</bottom-margin>
          </page-margins>
        </page-layout>
        <system-layout>
          <system-margins>
            <left-margin>60</left-margin>
            <right-margin>0</right-margin>
          </system-margins>
          <top-system-distance>50</top-system-distance>
        </system-layout>
        <measure-numbering>none</measure-numbering>
      </print>
      <attributes>
        <divisions>2</divisions>
        <key>
          <fifths>-1</fifths>
          <mode>major</mode>
        </key>
        <time symbol="common">
          <beats>4</beats>
          <beat-type>4</beat-type>
        </time>
        <clef>
          <sign>G</sign>
          <line>2</line>
        </clef>
      </attributes>
      <sound tempo="80">
        <swing>
          <straight/>
        </swing>
      </sound>
      <note default-x="129">
        <pitch>
          <step>D</step>
          <octave>4</octave>
        </pitch>
        <duration>2</duration>
        <voice>1</voice>
        <type>quarter</type>
        <stem default-y="-10">up</stem>
        <lyric default-y="-61" number="3" relative-x="-5">
          <syllabic>single</syllabic>
          <text>1.</text>
          <elision> </elision>
          <syllabic>single</syllabic>
          <text>Сів</text>
        </lyric>
      </note>
      <note default-x="172">
        <pitch>
          <step>F</step>
          <octave>4</octave>
        </pitch>
        <duration>2</duration>
        <voice>1</voice>
        <type>quarter</type>
        <stem default-y="0">up</stem>
        <lyric default-y="-61" number="3">
          <syllabic>begin</syllabic>
          <text>со</text>
        </lyric>
      </note>
      <note default-x="207">
        <pitch>
          <step>D</step>
          <octave>4</octave>
        </pitch>
        <duration>2</duration>
        <voice>1</voice>
        <type>quarter</type>
        <stem default-y="-10">up</stem>
        <lyric default-y="-61" number="3">
          <syllabic>end</syllabic>
          <text>кіл</text>
        </lyric>
      </note>
      <note default-x="241">
        <pitch>
          <step>F</step>
          <octave>4</octave>
        </pitch>
        <duration>2</duration>
        <voice>1</voice>
        <type>quarter</type>
        <stem default-y="0">up</stem>
        <lyric default-y="-61" number="3">
          <syllabic>single</syllabic>
          <text>на</text>
        </lyric>
      </note>
    </measure>
    <!--=======================================================-->
    <measure number="2" width="91">
      <note default-x="15">
        <pitch>
          <step>A</step>
          <octave>4</octave>
        </pitch>
        <duration>4</duration>
        <voice>1</voice>
        <type>half</type>
        <stem default-y="1">up</stem>
        <lyric default-y="-61" number="3">
          <syllabic>begin</syllabic>
          <text>я</text>
        </lyric>
      </note>
      <note default-x="53">
        <pitch>
          <step>G</step>
          <octave>4</octave>
        </pitch>
        <duration>4</duration>
        <voice>1</voice>
        <type>half</type>
        <stem default-y="-4">up</stem>
        <lyric default-y="-61" number="3">
          <syllabic>middle</syllabic>
          <text>ли</text>
        </lyric>
      </note>
    </measure>
    <!--=======================================================-->
    <measure number="3" width="75">
      <note default-x="19">
        <pitch>
          <step>F</step>
          <octave>4</octave>
        </pitch>
        <duration>4</duration>
        <voice>1</voice>
        <type>half</type>
        <stem default-y="0">up</stem>
        <notations>
          <slur bezier-x="7" bezier-y="-10" default-x="7" default-y="-45" number="1" placement="below" type="start"/>
        </notations>
        <lyric default-y="-61" number="3">
          <syllabic>end</syllabic>
          <text>ні,</text>
        </lyric>
      </note>
      <note default-x="47">
        <pitch>
          <step>E</step>
          <octave>4</octave>
        </pitch>
        <duration>4</duration>
        <voice>1</voice>
        <type>half</type>
        <stem default-y="-5">up</stem>
        <notations>
          <slur bezier-x="-10" bezier-y="-7" default-x="6" default-y="-50" number="1" type="stop"/>
        </notations>
      </note>
    </measure>
    <!--=======================================================-->
    <measure number="4" width="182">
      <note default-x="28">
        <pitch>
          <step>D</step>
          <octave>4</octave>
        </pitch>
        <duration>2</duration>
        <voice>1</voice>
        <type>quarter</type>
        <stem default-y="-10">up</stem>
        <lyric default-y="-61" number="3">
          <syllabic>single</syllabic>
          <text>десь</text>
        </lyric>
      </note>
      <note default-x="70">
        <pitch>
          <step>F</step>
          <octave>4</octave>
        </pitch>
        <duration>2</duration>
        <voice>1</voice>
        <type>quarter</type>
        <stem default-y="0">up</stem>
        <lyric default-y="-61" number="3">
          <syllabic>single</syllabic>
          <text>мій</text>
        </lyric>
      </note>
      <note default-x="109">
        <pitch>
          <step>D</step>
          <octave>4</octave>
        </pitch>
        <duration>2</duration>
        <voice>1</voice>
        <type>quarter</type>
        <stem default-y="-10">up</stem>
        <lyric default-y="-61" number="3">
          <syllabic>single</syllabic>
          <text>рід</text>
        </lyric>
      </note>
      <note default-x="145">
        <pitch>
          <step>F</step>
          <octave>4</octave>
        </pitch>
        <duration>2</duration>
        <voice>1</voice>
        <type>quarter</type>
        <stem default-y="0">up</stem>
        <lyric default-y="-61" number="3">
          <syllabic>single</syllabic>
          <text>на</text>
        </lyric>
      </note>
    </measure>
    <!--=======================================================-->
    <measure number="5" width="97">
      <note default-x="19">
        <pitch>
          <step>A</step>
          <octave>4</octave>
        </pitch>
        <duration>4</duration>
        <voice>1</voice>
        <type>half</type>
        <stem default-y="10">up</stem>
        <lyric default-y="-61" number="3">
          <syllabic>begin</syllabic>
          <text>чу</text>
        </lyric>
      </note>
      <note default-x="58">
        <pitch>
          <step>G</step>
          <octave>4</octave>
        </pitch>
        <duration>4</duration>
        <voice>1</voice>
        <type>half</type>
        <stem default-y="5">up</stem>
        <lyric default-y="-61" number="3">
          <syllabic>middle</syllabic>
          <text>жи</text>
        </lyric>
      </note>
    </measure>
    <!--=======================================================-->
    <measure number="6" width="63">
      <note default-x="19">
        <pitch>
          <step>F</step>
          <octave>4</octave>
        </pitch>
        <duration>6</duration>
        <voice>1</voice>
        <type>half</type>
        <dot/>
        <stem default-y="0">up</stem>
        <lyric default-y="-61" number="3">
          <syllabic>end</syllabic>
          <text>ні,</text>
        </lyric>
      </note>
      <note default-x="46">
        <rest/>
        <duration>2</duration>
        <voice>1</voice>
        <type>quarter</type>
      </note>
    </measure>
    <!--=======================================================-->
    <measure number="7" width="188">
      <print new-system="yes">
        <system-layout>
          <system-distance>53</system-distance>
        </system-layout>
      </print>
      <note default-x="80">
        <pitch>
          <step>A</step>
          <octave>4</octave>
        </pitch>
        <duration>4</duration>
        <voice>1</voice>
        <type>half</type>
        <stem default-y="10">up</stem>
        <lyric default-y="-61" number="3">
          <syllabic>begin</syllabic>
          <text>ві</text>
        </lyric>
      </note>
      <note default-x="121">
        <pitch>
          <step>B</step>
          <alter>-1</alter>
          <octave>4</octave>
        </pitch>
        <duration>2</duration>
        <voice>1</voice>
        <type>quarter</type>
        <stem default-y="-45">down</stem>
        <lyric default-y="-61" number="3">
          <syllabic>middle</syllabic>
          <text>дда</text>
        </lyric>
      </note>
      <note default-x="158">
        <pitch>
          <step>A</step>
          <octave>4</octave>
        </pitch>
        <duration>2</duration>
        <voice>1</voice>
        <type>quarter</type>
        <stem default-y="1">up</stem>
        <lyric default-y="-61" number="3">
          <syllabic>end</syllabic>
          <text>ли</text>
        </lyric>
      </note>
    </measure>
    <!--=======================================================-->
    <measure number="8" width="93">
      <note default-x="19">
        <pitch>
          <step>G</step>
          <octave>4</octave>
        </pitch>
        <duration>2</duration>
        <voice>1</voice>
        <type>quarter</type>
        <stem default-y="-1">up</stem>
        <lyric default-y="-61" number="3">
          <syllabic>begin</syllabic>
          <text>ме</text>
        </lyric>
      </note>
      <note default-x="50">
        <pitch>
          <step>F</step>
          <octave>4</octave>
        </pitch>
        <duration>4</duration>
        <voice>1</voice>
        <type>half</type>
        <stem default-y="-6">up</stem>
        <notations>
          <slur bezier-x="8" bezier-y="-8" default-x="7" default-y="-45" number="1" placement="below" type="start"/>
        </notations>
        <lyric default-y="-61" number="3">
          <syllabic>end</syllabic>
          <text>не,</text>
        </lyric>
      </note>
      <note default-x="76">
        <pitch>
          <step>G</step>
          <octave>4</octave>
        </pitch>
        <duration>2</duration>
        <voice>1</voice>
        <type>quarter</type>
        <stem default-y="-1">up</stem>
        <notations>
          <slur bezier-x="-7" bezier-y="-9" default-x="7" default-y="-43" number="1" type="stop"/>
        </notations>
      </note>
    </measure>
    <!--=======================================================-->
    <measure number="9" width="109">
      <note default-x="18">
        <pitch>
          <step>A</step>
          <octave>4</octave>
        </pitch>
        <duration>4</duration>
        <voice>1</voice>
        <type>half</type>
        <stem default-y="1">up</stem>
        <lyric default-y="-61" number="3">
          <syllabic>single</syllabic>
          <text>не</text>
        </lyric>
      </note>
      <note default-x="49">
        <pitch>
          <step>B</step>
          <alter>-1</alter>
          <octave>4</octave>
        </pitch>
        <duration>2</duration>
        <voice>1</voice>
        <type>quarter</type>
        <stem default-y="-42">down</stem>
        <lyric default-y="-61" number="3">
          <syllabic>begin</syllabic>
          <text>бу</text>
        </lyric>
      </note>
      <note default-x="81">
        <pitch>
          <step>A</step>
          <octave>4</octave>
        </pitch>
        <duration>2</duration>
        <voice>1</voice>
        <type>quarter</type>
        <stem default-y="1">up</stem>
        <lyric default-y="-61" number="3">
          <syllabic>end</syllabic>
          <text>ли</text>
        </lyric>
      </note>
    </measure>
    <!--=======================================================-->
    <measure number="10" width="109">
      <note default-x="27">
        <pitch>
          <step>G</step>
          <octave>4</octave>
        </pitch>
        <duration>2</duration>
        <voice>1</voice>
        <type>quarter</type>
        <stem default-y="0">up</stem>
        <lyric default-y="-61" number="3">
          <syllabic>single</syllabic>
          <text>в</text>
          <elision> </elision>
          <syllabic>begin</syllabic>
          <text>ме</text>
        </lyric>
      </note>
      <note default-x="68">
        <pitch>
          <step>F</step>
          <octave>4</octave>
        </pitch>
        <duration>6</duration>
        <voice>1</voice>
        <type>half</type>
        <dot/>
        <stem default-y="-5">up</stem>
        <lyric default-y="-61" number="3">
          <syllabic>end</syllabic>
          <text>не,</text>
        </lyric>
      </note>
    </measure>
    <!--=======================================================-->
    <measure number="11" width="160">
      <note default-x="28">
        <pitch>
          <step>A</step>
          <octave>4</octave>
        </pitch>
        <duration>2</duration>
        <voice>1</voice>
        <type>quarter</type>
        <stem default-y="1">up</stem>
        <lyric default-y="-61" number="3">
          <syllabic>single</syllabic>
          <text>десь</text>
        </lyric>
      </note>
      <note default-x="65">
        <pitch>
          <step>B</step>
          <alter>-1</alter>
          <octave>4</octave>
        </pitch>
        <duration>2</duration>
        <voice>1</voice>
        <type>quarter</type>
        <stem default-y="-46">down</stem>
        <lyric default-y="-61" number="3">
          <syllabic>single</syllabic>
          <text>то</text>
        </lyric>
      </note>
      <note default-x="97">
        <pitch>
          <step>A</step>
          <octave>4</octave>
        </pitch>
        <duration>2</duration>
        <voice>1</voice>
        <type>quarter</type>
        <stem default-y="1">up</stem>
        <lyric default-y="-61" number="3">
          <syllabic>single</syllabic>
          <text>їм</text>
        </lyric>
      </note>
      <note default-x="129">
        <pitch>
          <step>G</step>
          <octave>4</octave>
        </pitch>
        <duration>2</duration>
        <voice>1</voice>
        <type>quarter</type>
        <stem default-y="-4">up</stem>
        <lyric default-y="-61" number="3">
          <syllabic>single</syllabic>
          <text>не</text>
        </lyric>
      </note>
    </measure>
    <!--=======================================================-->
    <measure number="12" width="102">
      <note default-x="30">
        <pitch>
          <step>F</step>
          <octave>4</octave>
        </pitch>
        <duration>4</duration>
        <voice>1</voice>
        <type>half</type>
        <stem default-y="0">up</stem>
        <lyric default-y="-61" number="3">
          <syllabic>single</syllabic>
          <text>жаль</text>
        </lyric>
      </note>
      <note default-x="72">
        <pitch>
          <step>D</step>
          <octave>4</octave>
        </pitch>
        <duration>4</duration>
        <voice>1</voice>
        <type>half</type>
        <stem default-y="-10">up</stem>
        <lyric default-y="-61" number="3">
          <syllabic>begin</syllabic>
          <text>ме</text>
        </lyric>
      </note>
    </measure>
    <!--=======================================================-->
    <measure number="13" width="80">
      <note default-x="19">
        <pitch>
          <step>D</step>
          <octave>4</octave>
        </pitch>
        <duration>2</duration>
        <voice>1</voice>
        <type>quarter</type>
        <stem default-y="-10">up</stem>
        <lyric default-y="-61" number="3">
          <syllabic>end</syllabic>
          <text>не.</text>
        </lyric>
      </note>
      <note default-x="41">
        <rest/>
        <duration>2</duration>
        <voice>1</voice>
        <type>quarter</type>
      </note>
      <note default-x="52">
        <rest/>
        <duration>4</duration>
        <voice>1</voice>
        <type>half</type>
      </note>
      <barline location="right">
        <bar-style>light-heavy</bar-style>
      </barline>
    </measure>
  </part>
  <!--=========================================================-->
</score-partwise>
