<?xml version="1.0" encoding="UTF-8" standalone="no"?>
<!DOCTYPE score-partwise PUBLIC "-//Recordare//DTD MusicXML 4.0 Partwise//EN" "http://www.musicxml.org/dtds/partwise.dtd">
<score-partwise version="4.0">
  <identification>
    <encoding>
      <software>Finale v27.3 for Windows</software>
      <encoding-date>2025-08-16</encoding-date>
      <supports attribute="new-system" element="print" type="yes" value="yes"/>
      <supports attribute="new-page" element="print" type="yes" value="yes"/>
      <supports element="accidental" type="yes"/>
      <supports element="beam" type="yes"/>
      <supports element="stem" type="yes"/>
    </encoding>
  </identification>
  <defaults>
    <scaling>
      <millimeters>8.4667</millimeters>
      <tenths>40</tenths>
    </scaling>
    <page-layout>
      <page-height>1320</page-height>
      <page-width>1020</page-width>
      <page-margins type="both">
        <left-margin>60</left-margin>
        <right-margin>60</right-margin>
        <top-margin>60</top-margin>
        <bottom-margin>60</bottom-margin>
      </page-margins>
    </page-layout>
    <system-layout>
      <system-margins>
        <left-margin>0</left-margin>
        <right-margin>0</right-margin>
      </system-margins>
      <system-distance>38</system-distance>
      <top-system-distance>33</top-system-distance>
    </system-layout>
    <appearance>
      <line-width type="stem">0.7682</line-width>
      <line-width type="beam">5</line-width>
      <line-width type="staff">0.7682</line-width>
      <line-width type="light barline">0.7682</line-width>
      <line-width type="heavy barline">5</line-width>
      <line-width type="leger">0.7682</line-width>
      <line-width type="ending">0.7682</line-width>
      <line-width type="wedge">0.7682</line-width>
      <line-width type="enclosure">0.7682</line-width>
      <line-width type="tuplet bracket">0.7682</line-width>
      <note-size type="grace">50</note-size>
      <note-size type="cue">50</note-size>
      <distance type="hyphen">60</distance>
      <distance type="beam">7.5</distance>
    </appearance>
    <music-font font-family="Finale Maestro,engraved" font-size="24"/>
    <word-font font-family="Times New Roman" font-size="12"/>
    <lyric-font font-family="Times New Roman" font-size="12"/>
  </defaults>
  <credit page="1">
    <credit-words default-x="116" default-y="621" valign="top" xml:space="preserve">Зап. 09.06 2008 р. Матіяш Д., Кушка Т. у с. Павлівка Калинівського р-ну Вінницької обл. від Вдо-
виченко Н. А., Гунько В. М., Демчук В. М., Недопитанської Н. А., Любчик Г. І., Павлуник Н. С., 
Ковальчук І. П., Криворучко Л. Я., Біловус Н. І., Гуменчук К. А., Гуменчук Ю. Д. Розшифр. Єфре-
мова Л. О., № 6 (164). Вар. зап. у лютому 2007 р. вони ж у с. Забужжя Немирівського р-ну Вінни-
цької обл. № 28 (565). Чоловіче виконання. Вар. 1 зап. 1926 р. Милятицький В. від С. Нечипорен-
ки та О. Орленко з с. Спичиньці (нині Погребищенського р-ну Вінницької обл.). Дівчача гуртова. 
Співають ціле літо, стара. (В. М.) – ІМФЕ, ф. 6-4, од. зб. 151, арк. 14, № 25. Вар. 2 зап. Матіяш Д., 
Кушка Т. у с. Ободівка Тростянецького р-ну Вінницької обл. від гурту Розшифр. Єфремова Л. О., 
№ 19 (158). </credit-words>
  </credit>
  <credit page="1">
    <credit-words default-x="346" default-y="1283" font-size="19" valign="top">775. Косив козак сіно (11-ЛР-09)</credit-words>
  </credit>
  <credit page="1">
    <credit-words default-x="119" default-y="888" font-size="17" valign="top" xml:space="preserve">1. Косив козак сіно,
Як була негода,
Плакала дівчина,
Як була молода.*
2. Плакала, ридала,
На личку змарніла,
Видно по дівчині,
Віночка жаліла.</credit-words>
  </credit>
  <credit page="1">
    <credit-words default-x="110" default-y="406" valign="top">* Другу половину кожної строфи співають двічі. (Л. Є.)</credit-words>
  </credit>
  <credit page="1">
    <credit-words default-x="463" default-y="1244" valign="top">80 Неспішно</credit-words>
  </credit>
  <credit page="1">
    <credit-words default-x="134" default-y="1219" valign="top">Вар.</credit-words>
  </credit>
  <credit page="1">
    <credit-words default-x="396" default-y="893" font-size="17" valign="top" xml:space="preserve">3. Не жаль мені вінка,
Ні жодної речі,
Роспустила коси,
Устелила плечі.
4. Коси роспустила,
Плечі устелила,
Пішла за нелюба,
Жалю наробила.</credit-words>
  </credit>
  <credit page="1">
    <credit-words default-x="701" default-y="886" font-size="17" valign="top" xml:space="preserve">5. Ой жалю мій, жалю,
Ше й гірше печалю,
Наїхало хлопців 
З далекого краю.</credit-words>
  </credit>
  <part-list>
    <score-part id="P1">
      <part-name print-object="no">MusicXML Part</part-name>
      <group>score</group>
      <score-instrument id="P1-I1">
        <instrument-name>Èíñòðóìåíò 1</instrument-name>
      </score-instrument>
      <midi-instrument id="P1-I1">
        <midi-channel>1</midi-channel>
        <midi-program>1</midi-program>
        <volume>80</volume>
        <pan>0</pan>
      </midi-instrument>
    </score-part>
  </part-list>
  <!--=========================================================-->
  <part id="P1">
    <measure number="1" width="270">
      <print>
        <page-layout>
          <page-height>1320</page-height>
          <page-width>1020</page-width>
          <page-margins>
            <left-margin>119</left-margin>
            <right-margin>60</right-margin>
            <top-margin>60</top-margin>
            <bottom-margin>60</bottom-margin>
          </page-margins>
        </page-layout>
        <system-layout>
          <system-margins>
            <left-margin>61</left-margin>
            <right-margin>0</right-margin>
          </system-margins>
          <top-system-distance>58</top-system-distance>
        </system-layout>
        <measure-numbering>none</measure-numbering>
      </print>
      <attributes>
        <divisions>4</divisions>
        <key>
          <fifths>-2</fifths>
          <mode>major</mode>
        </key>
        <time symbol="common">
          <beats>4</beats>
          <beat-type>4</beat-type>
        </time>
        <clef>
          <sign>G</sign>
          <line>2</line>
          <clef-octave-change>-1</clef-octave-change>
        </clef>
      </attributes>
      <sound tempo="80">
        <swing>
          <straight/>
        </swing>
      </sound>
      <direction placement="above">
        <direction-type>
          <words default-y="25">quarter note equals</words>
        </direction-type>
      </direction>
      <note default-x="118">
        <pitch>
          <step>B</step>
          <alter>-1</alter>
          <octave>3</octave>
        </pitch>
        <duration>4</duration>
        <voice>1</voice>
        <type>quarter</type>
        <stem default-y="-55">down</stem>
        <lyric default-y="-70" number="2">
          <syllabic>begin</syllabic>
          <text>Ко</text>
        </lyric>
      </note>
      <note default-x="153">
        <pitch>
          <step>E</step>
          <alter>-1</alter>
          <octave>4</octave>
        </pitch>
        <duration>4</duration>
        <voice>1</voice>
        <type>quarter</type>
        <stem default-y="-40">down</stem>
        <lyric default-y="-70" number="2">
          <syllabic>middle</syllabic>
          <text>си</text>
        </lyric>
      </note>
      <note default-x="190">
        <pitch>
          <step>G</step>
          <octave>4</octave>
        </pitch>
        <duration>4</duration>
        <voice>1</voice>
        <type>quarter</type>
        <stem default-y="-30">down</stem>
        <lyric default-y="-70" number="2">
          <syllabic>end</syllabic>
          <text>в(и)</text>
        </lyric>
      </note>
      <note default-x="225">
        <pitch>
          <step>F</step>
          <octave>4</octave>
        </pitch>
        <duration>2</duration>
        <voice>1</voice>
        <type>eighth</type>
        <stem default-y="-40">down</stem>
        <beam number="1">begin</beam>
        <notations>
          <slur bezier-x="9" bezier-y="6" default-x="6" default-y="10" number="1" placement="above" type="start"/>
        </notations>
        <lyric default-y="-70" number="2" relative-x="3">
          <syllabic>begin</syllabic>
          <text>ко</text>
        </lyric>
      </note>
      <note default-x="247">
        <pitch>
          <step>D</step>
          <octave>4</octave>
        </pitch>
        <duration>2</duration>
        <voice>1</voice>
        <type>eighth</type>
        <stem default-y="-45">down</stem>
        <beam number="1">end</beam>
        <notations>
          <slur bezier-x="-4" bezier-y="10" default-x="6" default-y="3" number="1" type="stop"/>
        </notations>
      </note>
    </measure>
    <!--=======================================================-->
    <measure number="2" width="183">
      <note default-x="13">
        <pitch>
          <step>D</step>
          <octave>4</octave>
        </pitch>
        <duration>4</duration>
        <voice>1</voice>
        <type>quarter</type>
        <stem default-y="-45">down</stem>
        <lyric default-y="-70" number="2">
          <syllabic>end</syllabic>
          <text>зак</text>
        </lyric>
      </note>
      <note default-x="49">
        <pitch>
          <step>E</step>
          <alter>-1</alter>
          <octave>4</octave>
        </pitch>
        <duration>2</duration>
        <voice>1</voice>
        <type>eighth</type>
        <stem default-y="-50">down</stem>
        <beam number="1">begin</beam>
        <notations>
          <glissando line-type="wavy" number="1" type="start"/>
          <slur bezier-x="15" bezier-y="8" default-x="6" default-y="5" number="1" placement="above" type="start"/>
        </notations>
        <lyric default-y="-70" number="2">
          <syllabic>begin</syllabic>
          <text>сі</text>
        </lyric>
      </note>
      <note default-x="71">
        <pitch>
          <step>C</step>
          <octave>4</octave>
        </pitch>
        <duration>1</duration>
        <voice>1</voice>
        <type>16th</type>
        <stem default-y="-53">down</stem>
        <beam number="1">continue</beam>
        <beam number="2">begin</beam>
        <notations>
          <glissando line-type="wavy" number="1" type="stop"/>
          <glissando line-type="wavy" number="1" type="start"/>
        </notations>
      </note>
      <note default-x="89">
        <pitch>
          <step>B</step>
          <alter>-1</alter>
          <octave>3</octave>
        </pitch>
        <duration>1</duration>
        <voice>1</voice>
        <type>16th</type>
        <stem default-y="-55">down</stem>
        <beam number="1">end</beam>
        <beam number="2">end</beam>
        <notations>
          <slur bezier-x="-8" bezier-y="14" default-x="6" default-y="-7" number="1" type="stop"/>
          <glissando line-type="wavy" number="1" type="stop"/>
        </notations>
      </note>
      <note default-x="107">
        <pitch>
          <step>B</step>
          <alter>-1</alter>
          <octave>3</octave>
        </pitch>
        <duration>6</duration>
        <voice>1</voice>
        <type>quarter</type>
        <dot/>
        <stem default-y="-55">down</stem>
        <notations>
          <glissando line-type="wavy" number="1" type="start"/>
        </notations>
        <lyric default-y="-70" number="2" relative-x="4">
          <syllabic>end</syllabic>
          <text>но,</text>
        </lyric>
      </note>
      <note default-x="154">
        <pitch>
          <step>F</step>
          <octave>3</octave>
        </pitch>
        <duration>2</duration>
        <voice>1</voice>
        <type>eighth</type>
        <stem default-y="0">up</stem>
        <notations>
          <glissando line-type="wavy" number="1" type="stop"/>
        </notations>
      </note>
    </measure>
    <!--=======================================================-->
    <measure number="3" width="165">
      <note default-x="13">
        <pitch>
          <step>B</step>
          <alter>-1</alter>
          <octave>3</octave>
        </pitch>
        <duration>4</duration>
        <voice>1</voice>
        <type>quarter</type>
        <stem default-y="15">up</stem>
        <lyric default-y="-70" number="2">
          <syllabic>single</syllabic>
          <text>як</text>
        </lyric>
      </note>
      <note default-x="49">
        <pitch>
          <step>E</step>
          <alter>-1</alter>
          <octave>4</octave>
        </pitch>
        <duration>4</duration>
        <voice>1</voice>
        <type>quarter</type>
        <stem default-y="23.5">up</stem>
        <notations>
          <slur bezier-x="4" bezier-y="11" default-x="18" default-y="13" number="1" orientation="over" type="start"/>
        </notations>
        <lyric default-y="-70" number="2" relative-x="3">
          <syllabic>begin</syllabic>
          <text>бу</text>
        </lyric>
      </note>
      <note default-x="85">
        <pitch>
          <step>G</step>
          <octave>4</octave>
        </pitch>
        <duration>4</duration>
        <voice>1</voice>
        <type>quarter</type>
        <stem default-y="33.5">up</stem>
        <notations>
          <slur bezier-x="-10" bezier-y="5" default-x="7" default-y="23" number="1" type="stop"/>
        </notations>
      </note>
      <note default-x="120">
        <pitch>
          <step>F</step>
          <octave>4</octave>
        </pitch>
        <duration>4</duration>
        <voice>1</voice>
        <type>quarter</type>
        <stem default-y="28.5">up</stem>
        <lyric default-y="-70" number="2">
          <syllabic>end</syllabic>
          <text>ла</text>
          <elision> </elision>
          <syllabic>single</syllabic>
          <text>(й),</text>
        </lyric>
      </note>
      <backup>
        <duration>16</duration>
      </backup>
      <forward>
        <duration>4</duration>
        <voice>2</voice>
      </forward>
      <note default-x="61">
        <pitch>
          <step>E</step>
          <alter>-1</alter>
          <octave>4</octave>
        </pitch>
        <duration>8</duration>
        <voice>2</voice>
        <type>half</type>
        <stem default-y="-40">down</stem>
      </note>
      <forward>
        <duration>4</duration>
        <voice>2</voice>
      </forward>
    </measure>
    <!--=======================================================-->
    <measure number="4" width="162">
      <note default-x="13">
        <pitch>
          <step>D</step>
          <octave>4</octave>
        </pitch>
        <duration>4</duration>
        <voice>1</voice>
        <type>quarter</type>
        <stem default-y="-45">down</stem>
        <lyric default-y="-70" number="2">
          <syllabic>begin</syllabic>
          <text>по</text>
        </lyric>
      </note>
      <note default-x="49">
        <pitch>
          <step>E</step>
          <alter>-1</alter>
          <octave>4</octave>
        </pitch>
        <duration>2</duration>
        <voice>1</voice>
        <type>eighth</type>
        <stem default-y="-45">down</stem>
        <beam number="1">begin</beam>
        <notations>
          <slur bezier-x="10" bezier-y="5" default-x="6" default-y="5" number="1" placement="above" type="start"/>
          <glissando line-type="wavy" number="1" relative-x="60" relative-y="-16" type="start"/>
        </notations>
        <lyric default-y="-70" number="2" relative-x="3">
          <syllabic>middle</syllabic>
          <text>го</text>
        </lyric>
      </note>
      <note default-x="70">
        <pitch>
          <step>C</step>
          <octave>4</octave>
        </pitch>
        <duration>2</duration>
        <voice>1</voice>
        <type>eighth</type>
        <stem default-y="-50">down</stem>
        <beam number="1">end</beam>
        <notations>
          <slur bezier-x="-3" bezier-y="10" default-x="6" default-y="-5" number="1" type="stop"/>
        </notations>
      </note>
      <note default-x="93">
        <pitch>
          <step>B</step>
          <alter>-1</alter>
          <octave>3</octave>
        </pitch>
        <duration>6</duration>
        <voice>1</voice>
        <type>quarter</type>
        <dot/>
        <stem default-y="-55">down</stem>
        <notations>
          <glissando line-type="wavy" number="1" relative-x="48" relative-y="-29" type="stop"/>
        </notations>
        <lyric default-y="-70" number="2" relative-x="3">
          <syllabic>end</syllabic>
          <text>да,</text>
        </lyric>
      </note>
      <note default-x="139">
        <rest/>
        <duration>2</duration>
        <voice>1</voice>
        <type>eighth</type>
      </note>
    </measure>
    <!--=======================================================-->
    <measure number="5" width="248">
      <print new-system="yes">
        <system-layout>
          <system-distance>62</system-distance>
        </system-layout>
      </print>
      <note default-x="85">
        <pitch>
          <step>E</step>
          <alter>-1</alter>
          <octave>4</octave>
        </pitch>
        <duration>4</duration>
        <voice>1</voice>
        <type>quarter</type>
        <stem default-y="-40">down</stem>
        <lyric default-y="-70" number="2">
          <syllabic>begin</syllabic>
          <text>лю</text>
        </lyric>
      </note>
      <note default-x="126">
        <pitch>
          <step>E</step>
          <alter>-1</alter>
          <octave>4</octave>
        </pitch>
        <duration>4</duration>
        <voice>1</voice>
        <type>quarter</type>
        <stem default-y="-40">down</stem>
        <notations>
          <slur bezier-x="9" bezier-y="14" default-x="6" default-y="5" number="1" placement="above" type="start"/>
        </notations>
        <lyric default-y="-70" number="2" relative-x="9">
          <syllabic>end</syllabic>
          <text>бив</text>
        </lyric>
      </note>
      <note default-x="166">
        <pitch>
          <step>G</step>
          <octave>4</octave>
        </pitch>
        <duration>4</duration>
        <voice>1</voice>
        <type>quarter</type>
        <stem default-y="-30">down</stem>
        <notations>
          <slur bezier-x="-15" bezier-y="8" default-x="6" default-y="15" number="1" type="stop"/>
        </notations>
      </note>
      <note default-x="207">
        <pitch>
          <step>G</step>
          <octave>4</octave>
        </pitch>
        <duration>4</duration>
        <voice>1</voice>
        <type>quarter</type>
        <stem default-y="-30">down</stem>
        <lyric default-y="-70" number="2">
          <syllabic>begin</syllabic>
          <text>ко</text>
        </lyric>
      </note>
    </measure>
    <!--=======================================================-->
    <measure number="6" width="178">
      <attributes>
        <time>
          <beats>3</beats>
          <beat-type>4</beat-type>
        </time>
      </attributes>
      <note default-x="46">
        <pitch>
          <step>G</step>
          <octave>4</octave>
        </pitch>
        <duration>4</duration>
        <voice>1</voice>
        <type>quarter</type>
        <stem default-y="-30">down</stem>
        <lyric default-y="-70" number="2">
          <syllabic>end</syllabic>
          <text>зак</text>
        </lyric>
      </note>
      <note default-x="86">
        <pitch>
          <step>F</step>
          <octave>4</octave>
        </pitch>
        <duration>4</duration>
        <voice>1</voice>
        <type>quarter</type>
        <stem default-y="-35">down</stem>
        <lyric default-y="-70" number="2">
          <syllabic>begin</syllabic>
          <text>ді</text>
        </lyric>
      </note>
      <note default-x="127">
        <pitch>
          <step>F</step>
          <octave>4</octave>
        </pitch>
        <duration>2</duration>
        <voice>1</voice>
        <type>eighth</type>
        <stem default-y="-35">down</stem>
        <beam number="1">begin</beam>
        <notations>
          <slur bezier-x="9" bezier-y="7" default-x="6" default-y="10" number="1" placement="above" type="start"/>
        </notations>
        <lyric default-y="-70" number="2" relative-x="3">
          <syllabic>end</syllabic>
          <text>вку,</text>
        </lyric>
      </note>
      <note default-x="152">
        <pitch>
          <step>E</step>
          <alter>-1</alter>
          <octave>4</octave>
        </pitch>
        <duration>2</duration>
        <voice>1</voice>
        <type>eighth</type>
        <stem default-y="-40">down</stem>
        <beam number="1">end</beam>
        <notations>
          <slur bezier-x="-6" bezier-y="10" default-x="6" default-y="5" number="1" type="stop"/>
        </notations>
      </note>
    </measure>
    <!--=======================================================-->
    <measure number="7" width="228">
      <attributes>
        <time symbol="common">
          <beats>4</beats>
          <beat-type>4</beat-type>
        </time>
      </attributes>
      <note default-x="45">
        <pitch>
          <step>B</step>
          <alter>-1</alter>
          <octave>3</octave>
        </pitch>
        <duration>2</duration>
        <voice>1</voice>
        <type>eighth</type>
        <stem default-y="-55">down</stem>
        <beam number="1">begin</beam>
        <notations>
          <slur bezier-x="8" bezier-y="9" default-x="6" default-y="-7" number="1" placement="above" type="start"/>
        </notations>
        <lyric default-y="-70" number="2">
          <syllabic>single</syllabic>
          <text>як</text>
        </lyric>
      </note>
      <direction placement="below">
        <direction-type>
          <words default-y="-16">( )</words>
        </direction-type>
      </direction>
      <note default-x="71">
        <pitch>
          <step>C</step>
          <octave>4</octave>
        </pitch>
        <duration>2</duration>
        <voice>1</voice>
        <type>eighth</type>
        <stem default-y="-50">down</stem>
        <beam number="1">end</beam>
        <notations>
          <slur bezier-x="-8" bezier-y="8" default-x="6" default-y="-5" number="1" type="stop"/>
        </notations>
      </note>
      <note default-x="101">
        <pitch>
          <step>D</step>
          <alter>-1</alter>
          <octave>4</octave>
        </pitch>
        <duration>6</duration>
        <voice>1</voice>
        <type>quarter</type>
        <dot/>
        <accidental>flat</accidental>
        <stem default-y="-45">down</stem>
        <notations>
          <slur bezier-x="18" bezier-y="11" default-x="6" default-y="3" number="1" placement="above" type="start"/>
        </notations>
        <lyric default-y="-70" number="2">
          <syllabic>begin</syllabic>
          <text>бу</text>
        </lyric>
      </note>
      <note default-x="157">
        <pitch>
          <step>C</step>
          <octave>4</octave>
        </pitch>
        <duration>2</duration>
        <voice>1</voice>
        <type>eighth</type>
        <stem default-y="-50">down</stem>
        <notations>
          <slur bezier-x="-14" bezier-y="16" default-x="6" default-y="-5" number="1" type="stop"/>
        </notations>
      </note>
      <note default-x="185">
        <pitch>
          <step>D</step>
          <alter>-1</alter>
          <octave>4</octave>
        </pitch>
        <duration>4</duration>
        <voice>1</voice>
        <type>quarter</type>
        <stem default-y="-45">down</stem>
        <lyric default-y="-70" number="2">
          <syllabic>end</syllabic>
          <text>ла</text>
        </lyric>
      </note>
    </measure>
    <!--=======================================================-->
    <measure number="8" width="187">
      <note default-x="25">
        <pitch>
          <step>D</step>
          <alter>-1</alter>
          <octave>4</octave>
        </pitch>
        <duration>4</duration>
        <voice>1</voice>
        <type>quarter</type>
        <accidental>flat</accidental>
        <stem default-y="-45">down</stem>
        <lyric default-y="-70" number="2">
          <syllabic>begin</syllabic>
          <text>мо</text>
        </lyric>
      </note>
      <note default-x="66">
        <pitch>
          <step>C</step>
          <octave>4</octave>
        </pitch>
        <duration>4</duration>
        <voice>1</voice>
        <type>quarter</type>
        <stem default-y="-50">down</stem>
        <lyric default-y="-70" number="2">
          <syllabic>middle</syllabic>
          <text>ло</text>
        </lyric>
      </note>
      <note default-x="107">
        <pitch>
          <step>B</step>
          <alter>-1</alter>
          <octave>3</octave>
        </pitch>
        <duration>6</duration>
        <voice>1</voice>
        <type>quarter</type>
        <dot/>
        <stem default-y="-55">down</stem>
        <lyric default-y="-70" number="2" relative-x="3">
          <syllabic>end</syllabic>
          <text>да.</text>
        </lyric>
      </note>
      <note default-x="160">
        <rest/>
        <duration>2</duration>
        <voice>1</voice>
        <type>eighth</type>
      </note>
    </measure>
    <!--=======================================================-->
    <measure number="9" width="250">
      <print new-system="yes">
        <system-layout>
          <system-distance>55</system-distance>
        </system-layout>
      </print>
      <note default-x="85">
        <pitch>
          <step>E</step>
          <alter>-1</alter>
          <octave>4</octave>
        </pitch>
        <duration>4</duration>
        <voice>1</voice>
        <type>quarter</type>
        <stem default-y="-40">down</stem>
        <lyric default-y="-63" number="2">
          <syllabic>begin</syllabic>
          <text>лю</text>
        </lyric>
      </note>
      <note default-x="126">
        <pitch>
          <step>E</step>
          <alter>-1</alter>
          <octave>4</octave>
        </pitch>
        <duration>4</duration>
        <voice>1</voice>
        <type>quarter</type>
        <stem default-y="-40">down</stem>
        <notations>
          <slur bezier-x="9" bezier-y="14" default-x="6" default-y="5" number="1" placement="above" type="start"/>
        </notations>
        <lyric default-y="-63" number="2" relative-x="9">
          <syllabic>end</syllabic>
          <text>бив</text>
        </lyric>
      </note>
      <note default-x="168">
        <pitch>
          <step>G</step>
          <octave>4</octave>
        </pitch>
        <duration>4</duration>
        <voice>1</voice>
        <type>quarter</type>
        <stem default-y="-30">down</stem>
        <notations>
          <slur bezier-x="-15" bezier-y="8" default-x="6" default-y="15" number="1" type="stop"/>
        </notations>
      </note>
      <note default-x="208">
        <pitch>
          <step>G</step>
          <octave>4</octave>
        </pitch>
        <duration>4</duration>
        <voice>1</voice>
        <type>quarter</type>
        <stem default-y="-30">down</stem>
        <lyric default-y="-63" number="2">
          <syllabic>begin</syllabic>
          <text>ко</text>
        </lyric>
      </note>
    </measure>
    <!--=======================================================-->
    <measure number="10" width="189">
      <attributes>
        <time>
          <beats>3</beats>
          <beat-type>4</beat-type>
        </time>
      </attributes>
      <note default-x="46">
        <pitch>
          <step>G</step>
          <octave>4</octave>
        </pitch>
        <duration>4</duration>
        <voice>1</voice>
        <type>quarter</type>
        <stem default-y="-30">down</stem>
        <lyric default-y="-63" number="2">
          <syllabic>end</syllabic>
          <text>зак</text>
        </lyric>
      </note>
      <note default-x="89">
        <pitch>
          <step>F</step>
          <octave>4</octave>
        </pitch>
        <duration>4</duration>
        <voice>1</voice>
        <type>quarter</type>
        <stem default-y="-35">down</stem>
        <lyric default-y="-63" number="2">
          <syllabic>begin</syllabic>
          <text>ді</text>
        </lyric>
      </note>
      <note default-x="132">
        <pitch>
          <step>E</step>
          <alter>-1</alter>
          <octave>4</octave>
        </pitch>
        <duration>2</duration>
        <voice>1</voice>
        <type>eighth</type>
        <stem default-y="-40">down</stem>
        <beam number="1">begin</beam>
        <notations>
          <slur bezier-x="9" bezier-y="9" default-x="6" default-y="5" number="1" placement="above" type="start"/>
        </notations>
        <lyric default-y="-63" number="2" relative-x="8">
          <syllabic>end</syllabic>
          <text>вку,</text>
        </lyric>
      </note>
      <note default-x="161">
        <pitch>
          <step>D</step>
          <alter>-1</alter>
          <octave>4</octave>
        </pitch>
        <duration>2</duration>
        <voice>1</voice>
        <type>eighth</type>
        <accidental>flat</accidental>
        <stem default-y="-45">down</stem>
        <beam number="1">end</beam>
        <notations>
          <slur bezier-x="-8" bezier-y="10" default-x="6" default-y="3" number="1" type="stop"/>
        </notations>
      </note>
    </measure>
    <!--=======================================================-->
    <measure number="11" width="194">
      <attributes>
        <time symbol="common">
          <beats>4</beats>
          <beat-type>4</beat-type>
        </time>
      </attributes>
      <note default-x="45">
        <pitch>
          <step>B</step>
          <alter>-1</alter>
          <octave>3</octave>
        </pitch>
        <duration>4</duration>
        <voice>1</voice>
        <type>quarter</type>
        <stem default-y="-55">down</stem>
        <lyric default-y="-63" number="2">
          <syllabic>single</syllabic>
          <text>як</text>
        </lyric>
      </note>
      <note default-x="85">
        <pitch>
          <step>D</step>
          <alter>-1</alter>
          <octave>4</octave>
        </pitch>
        <duration>8</duration>
        <voice>1</voice>
        <type>half</type>
        <accidental>flat</accidental>
        <stem default-y="-45">down</stem>
        <lyric default-y="-63" number="2">
          <syllabic>begin</syllabic>
          <text>бу</text>
        </lyric>
      </note>
      <note default-x="85">
        <chord/>
        <pitch>
          <step>F</step>
          <octave>4</octave>
        </pitch>
        <duration>8</duration>
        <voice>1</voice>
        <type>half</type>
        <stem>down</stem>
      </note>
      <note default-x="152">
        <pitch>
          <step>D</step>
          <alter>-1</alter>
          <octave>4</octave>
        </pitch>
        <duration>4</duration>
        <voice>1</voice>
        <type>quarter</type>
        <stem default-y="-45">down</stem>
        <lyric default-y="-63" number="2">
          <syllabic>end</syllabic>
          <text>ла</text>
        </lyric>
      </note>
    </measure>
    <!--=======================================================-->
    <measure number="12" width="208">
      <note default-x="25">
        <pitch>
          <step>D</step>
          <alter>-1</alter>
          <octave>4</octave>
        </pitch>
        <duration>4</duration>
        <voice>1</voice>
        <type>quarter</type>
        <accidental>flat</accidental>
        <stem default-y="-45">down</stem>
        <lyric default-y="-63" number="2">
          <syllabic>begin</syllabic>
          <text>мо</text>
        </lyric>
      </note>
      <note default-x="67">
        <pitch>
          <step>C</step>
          <octave>4</octave>
        </pitch>
        <duration>2</duration>
        <voice>1</voice>
        <type>eighth</type>
        <stem default-y="-50">down</stem>
        <beam number="1">begin</beam>
        <notations>
          <slur bezier-x="8" bezier-y="8" default-x="6" default-y="-5" number="1" placement="above" type="start"/>
        </notations>
        <lyric default-y="-63" number="2" relative-x="4">
          <syllabic>middle</syllabic>
          <text>ло</text>
        </lyric>
      </note>
      <direction placement="below">
        <direction-type>
          <words default-y="-19">( )</words>
        </direction-type>
      </direction>
      <note default-x="92">
        <pitch>
          <step>B</step>
          <alter>-1</alter>
          <octave>3</octave>
        </pitch>
        <duration>2</duration>
        <voice>1</voice>
        <type>eighth</type>
        <stem default-y="-55">down</stem>
        <beam number="1">end</beam>
        <notations>
          <slur bezier-x="-7" bezier-y="9" default-x="6" default-y="-7" number="1" type="stop"/>
        </notations>
      </note>
      <note default-x="118">
        <pitch>
          <step>B</step>
          <alter>-1</alter>
          <octave>3</octave>
        </pitch>
        <duration>6</duration>
        <voice>1</voice>
        <type>quarter</type>
        <dot/>
        <stem default-y="-55">down</stem>
        <lyric default-y="-63" number="2" relative-x="3">
          <syllabic>end</syllabic>
          <text>да.</text>
        </lyric>
      </note>
      <note default-x="173">
        <rest/>
        <duration>2</duration>
        <voice>1</voice>
        <type>eighth</type>
      </note>
      <barline location="right">
        <bar-style>light-heavy</bar-style>
      </barline>
    </measure>
  </part>
  <!--=========================================================-->
</score-partwise>
