<?xml version="1.0" encoding="UTF-8" standalone="no"?>
<!DOCTYPE score-partwise PUBLIC "-//Recordare//DTD MusicXML 4.0 Partwise//EN" "http://www.musicxml.org/dtds/partwise.dtd">
<score-partwise version="4.0">
  <identification>
    <encoding>
      <software>Finale v27.3 for Windows</software>
      <encoding-date>2024-04-19</encoding-date>
      <supports attribute="new-system" element="print" type="yes" value="yes"/>
      <supports attribute="new-page" element="print" type="yes" value="yes"/>
      <supports element="accidental" type="yes"/>
      <supports element="beam" type="yes"/>
      <supports element="stem" type="yes"/>
    </encoding>
  </identification>
  <defaults>
    <scaling>
      <millimeters>8.4667</millimeters>
      <tenths>40</tenths>
    </scaling>
    <page-layout>
      <page-height>1320</page-height>
      <page-width>1020</page-width>
      <page-margins type="both">
        <left-margin>60</left-margin>
        <right-margin>60</right-margin>
        <top-margin>60</top-margin>
        <bottom-margin>60</bottom-margin>
      </page-margins>
    </page-layout>
    <system-layout>
      <system-margins>
        <left-margin>0</left-margin>
        <right-margin>0</right-margin>
      </system-margins>
      <system-distance>110</system-distance>
      <top-system-distance>67</top-system-distance>
    </system-layout>
    <appearance>
      <line-width type="stem">0.7682</line-width>
      <line-width type="beam">5</line-width>
      <line-width type="staff">0.7682</line-width>
      <line-width type="light barline">0.7682</line-width>
      <line-width type="heavy barline">5</line-width>
      <line-width type="leger">0.7682</line-width>
      <line-width type="ending">0.7682</line-width>
      <line-width type="wedge">0.7682</line-width>
      <line-width type="enclosure">0.7682</line-width>
      <line-width type="tuplet bracket">0.7682</line-width>
      <note-size type="grace">50</note-size>
      <note-size type="cue">50</note-size>
      <distance type="hyphen">60</distance>
      <distance type="beam">7.5</distance>
    </appearance>
    <music-font font-family="Maestro,engraved" font-size="24"/>
    <word-font font-family="Times New Roman" font-size="12"/>
    <lyric-font font-family="Times New Roman" font-size="12"/>
  </defaults>
  <credit page="1">
    <credit-words default-x="116" default-y="81" valign="top">* Цей приспів виконують за кожною строфою пісні. (Л. Є.)</credit-words>
  </credit>
  <credit page="1">
    <credit-words default-x="354" default-y="1254" font-size="19" valign="top">65. Ходит-походит (ОК-КЩ-01)</credit-words>
  </credit>
  <credit page="1">
    <credit-words default-x="247" default-y="1213" valign="top">[Спокійно]</credit-words>
  </credit>
  <credit page="1">
    <credit-words default-x="531" default-y="46" valign="top">74</credit-words>
  </credit>
  <credit page="1">
    <credit-words default-x="94" default-y="854" font-size="17" valign="top" xml:space="preserve">1. Ходит-походит
Три товариші.
Славен єси, (2)
Наш милий Боже,
На небеси!*

2. Перший товариш –
Яснеє сонце.

3. Другий товариш –
Та дрібний дощик.

4. Третій товариш –
Місяцю ясний..

5. – Перший товариш,
Чим ся похвалиш?

6. – Ой як я зійду
В неділю рано,</credit-words>
  </credit>
  <credit page="1">
    <credit-words default-x="384" default-y="839" font-size="17" valign="top" xml:space="preserve">12. Жито-пшениця,
Всяка пашниця.

7. То врадуються
Церкви й косцьоли,

8. Церкви-косцьоли,
В церквах престоли.

9. – Другий товариш,
Чим ся похвалиш?

10. – Ой як я спаду
В місяцю маю,

11. То врадується
Жито-пшениця,</credit-words>
  </credit>
  <credit page="1">
    <credit-words default-x="719" default-y="841" font-size="17" valign="top" xml:space="preserve">13. Третій товариш,
Чим ся похвалиш?

14. – Ой як я зійду
Звечера пізно,

15. То врадується
Гість у дорозі,

16. Гість у дорозі
Й коники в возі.

17. Ой коні в возі
Й вся звірка в полі.

18. Вся звірка в полі
І рибка в морі.</credit-words>
  </credit>
  <credit page="1">
    <credit-words default-x="93" default-y="176" valign="top" xml:space="preserve">Зап. 1918 р. Постоловський А. у с. Чорнокозинці Кам’янець-Подільського р-ну Хмельницької обл. 
від матері та тітки. – ІМФЕ, ф. 6-4, од. зб. 119, арк. 164, № 117.</credit-words>
  </credit>
  <part-list>
    <score-part id="P1">
      <part-name print-object="no">MusicXML Part</part-name>
      <group>score</group>
      <score-instrument id="P1-I1">
        <instrument-name>Èíñòðóìåíò 1</instrument-name>
      </score-instrument>
      <midi-instrument id="P1-I1">
        <midi-channel>1</midi-channel>
        <midi-program>1</midi-program>
        <volume>80</volume>
        <pan>0</pan>
      </midi-instrument>
    </score-part>
  </part-list>
  <!--=========================================================-->
  <part id="P1">
    <measure number="1" width="268">
      <print>
        <page-layout>
          <page-height>1320</page-height>
          <page-width>1020</page-width>
          <page-margins>
            <left-margin>118</left-margin>
            <right-margin>60</right-margin>
            <top-margin>60</top-margin>
            <bottom-margin>60</bottom-margin>
          </page-margins>
        </page-layout>
        <system-layout>
          <system-margins>
            <left-margin>32</left-margin>
            <right-margin>24</right-margin>
          </system-margins>
          <top-system-distance>75</top-system-distance>
        </system-layout>
        <measure-numbering>none</measure-numbering>
      </print>
      <attributes>
        <divisions>2</divisions>
        <key>
          <fifths>1</fifths>
          <mode>major</mode>
        </key>
        <time>
          <beats>3</beats>
          <beat-type>8</beat-type>
        </time>
        <clef>
          <sign>G</sign>
          <line>2</line>
        </clef>
      </attributes>
      <sound tempo="96">
        <swing>
          <straight/>
        </swing>
      </sound>
      <note default-x="126">
        <pitch>
          <step>B</step>
          <octave>4</octave>
        </pitch>
        <duration>1</duration>
        <voice>1</voice>
        <type>eighth</type>
        <stem default-y="-55">down</stem>
        <lyric default-y="-74" number="2">
          <syllabic>single</syllabic>
          <text>1.</text>
          <elision> </elision>
          <syllabic>begin</syllabic>
          <text>Хо</text>
        </lyric>
      </note>
      <note default-x="174">
        <pitch>
          <step>D</step>
          <octave>5</octave>
        </pitch>
        <duration>1</duration>
        <voice>1</voice>
        <type>eighth</type>
        <stem default-y="-45">down</stem>
        <lyric default-y="-74" number="2">
          <syllabic>middle</syllabic>
          <text>дит</text>
        </lyric>
      </note>
      <note default-x="221">
        <pitch>
          <step>D</step>
          <octave>5</octave>
        </pitch>
        <duration>1</duration>
        <voice>1</voice>
        <type>eighth</type>
        <stem default-y="-45">down</stem>
        <lyric default-y="-74" number="2">
          <syllabic>middle</syllabic>
          <text>по</text>
        </lyric>
      </note>
    </measure>
    <!--=======================================================-->
    <measure number="2" width="173">
      <note default-x="18">
        <pitch>
          <step>C</step>
          <octave>5</octave>
        </pitch>
        <duration>2</duration>
        <voice>1</voice>
        <type>quarter</type>
        <stem default-y="-50">down</stem>
        <lyric default-y="-74" number="2">
          <syllabic>middle</syllabic>
          <text>хо</text>
        </lyric>
      </note>
      <note default-x="113">
        <pitch>
          <step>D</step>
          <octave>5</octave>
        </pitch>
        <duration>1</duration>
        <voice>1</voice>
        <type>eighth</type>
        <stem default-y="-45">down</stem>
        <lyric default-y="-74" number="2">
          <syllabic>end</syllabic>
          <text>дит</text>
        </lyric>
      </note>
    </measure>
    <!--=======================================================-->
    <measure number="3" width="173">
      <note default-x="16">
        <grace slash="yes"/>
        <pitch>
          <step>C</step>
          <octave>5</octave>
        </pitch>
        <voice>1</voice>
        <type>eighth</type>
        <stem default-y="3">up</stem>
        <notations>
          <slur bezier-x="3" bezier-y="-7" default-x="3" default-y="-23" number="1" placement="below" type="start"/>
        </notations>
        <lyric default-y="-74" number="2">
          <syllabic>single</syllabic>
          <text>три</text>
        </lyric>
      </note>
      <note default-x="38">
        <pitch>
          <step>B</step>
          <octave>4</octave>
        </pitch>
        <duration>1</duration>
        <voice>1</voice>
        <type>eighth</type>
        <stem default-y="-55">down</stem>
        <notations>
          <slur bezier-x="-6" bezier-y="-6" default-x="-3" default-y="-26" number="1" type="stop"/>
        </notations>
      </note>
      <note default-x="83">
        <pitch>
          <step>B</step>
          <octave>4</octave>
        </pitch>
        <duration>1</duration>
        <voice>1</voice>
        <type>eighth</type>
        <stem default-y="-55">down</stem>
        <lyric default-y="-74" number="2">
          <syllabic>begin</syllabic>
          <text>то</text>
        </lyric>
      </note>
      <note default-x="127">
        <pitch>
          <step>B</step>
          <octave>4</octave>
        </pitch>
        <duration>1</duration>
        <voice>1</voice>
        <type>eighth</type>
        <stem default-y="-55">down</stem>
        <lyric default-y="-74" number="2">
          <syllabic>middle</syllabic>
          <text>ва</text>
        </lyric>
      </note>
    </measure>
    <!--=======================================================-->
    <measure number="4" width="173">
      <note default-x="19">
        <pitch>
          <step>A</step>
          <octave>4</octave>
        </pitch>
        <duration>2</duration>
        <voice>1</voice>
        <type>quarter</type>
        <stem default-y="10">up</stem>
        <lyric default-y="-74" number="2">
          <syllabic>middle</syllabic>
          <text>ри</text>
        </lyric>
      </note>
      <note default-x="113">
        <pitch>
          <step>B</step>
          <octave>4</octave>
        </pitch>
        <duration>1</duration>
        <voice>1</voice>
        <type>eighth</type>
        <stem default-y="-55">down</stem>
        <lyric default-y="-74" number="2">
          <syllabic>end</syllabic>
          <text>ші.</text>
        </lyric>
      </note>
    </measure>
    <!--=======================================================-->
    <measure number="5" width="260">
      <print new-system="yes">
        <system-layout>
          <system-distance>63</system-distance>
        </system-layout>
      </print>
      <note default-x="90">
        <pitch>
          <step>G</step>
          <octave>4</octave>
        </pitch>
        <duration>1</duration>
        <voice>1</voice>
        <type>eighth</type>
        <stem default-y="5">up</stem>
        <notations>
          <fermata default-x="-1" default-y="11" type="upright"/>
        </notations>
        <lyric default-y="-69" number="2">
          <syllabic>begin</syllabic>
          <text>Сла</text>
        </lyric>
      </note>
      <note default-x="146">
        <pitch>
          <step>F</step>
          <alter>1</alter>
          <octave>4</octave>
        </pitch>
        <duration>1</duration>
        <voice>1</voice>
        <type>eighth</type>
        <stem default-y="0">up</stem>
        <lyric default-y="-69" number="2">
          <syllabic>end</syllabic>
          <text>вен</text>
        </lyric>
      </note>
      <note default-x="203">
        <pitch>
          <step>E</step>
          <octave>4</octave>
        </pitch>
        <duration>1</duration>
        <voice>1</voice>
        <type>eighth</type>
        <stem default-y="-5">up</stem>
        <lyric default-y="-69" number="2">
          <syllabic>begin</syllabic>
          <text>є</text>
        </lyric>
      </note>
    </measure>
    <!--=======================================================-->
    <measure number="6" width="195">
      <note default-x="21">
        <pitch>
          <step>D</step>
          <octave>4</octave>
        </pitch>
        <duration>3</duration>
        <voice>1</voice>
        <type>quarter</type>
        <dot/>
        <stem default-y="-10">up</stem>
        <lyric default-y="-69" number="2">
          <syllabic>end</syllabic>
          <text>си,</text>
        </lyric>
      </note>
    </measure>
    <!--=======================================================-->
    <measure number="7" width="195">
      <note default-x="23">
        <pitch>
          <step>D</step>
          <octave>5</octave>
        </pitch>
        <duration>2</duration>
        <voice>1</voice>
        <type>quarter</type>
        <stem default-y="-45">down</stem>
        <lyric default-y="-69" number="2">
          <syllabic>begin</syllabic>
          <text>сла</text>
        </lyric>
      </note>
      <note default-x="128">
        <pitch>
          <step>D</step>
          <octave>5</octave>
        </pitch>
        <duration>1</duration>
        <voice>1</voice>
        <type>eighth</type>
        <stem default-y="-45">down</stem>
        <lyric default-y="-69" number="2">
          <syllabic>end</syllabic>
          <text>вен</text>
        </lyric>
      </note>
    </measure>
    <!--=======================================================-->
    <measure number="8" width="194">
      <note default-x="15">
        <pitch>
          <step>C</step>
          <octave>5</octave>
        </pitch>
        <duration>2</duration>
        <voice>1</voice>
        <type>quarter</type>
        <stem default-y="-50">down</stem>
        <lyric default-y="-69" number="2">
          <syllabic>begin</syllabic>
          <text>є</text>
        </lyric>
      </note>
      <note default-x="125">
        <pitch>
          <step>D</step>
          <octave>5</octave>
        </pitch>
        <duration>1</duration>
        <voice>1</voice>
        <type>eighth</type>
        <stem default-y="-45">down</stem>
        <lyric default-y="-69" number="2">
          <syllabic>end</syllabic>
          <text>си,</text>
        </lyric>
      </note>
    </measure>
    <!--=======================================================-->
    <measure number="9" width="260">
      <print new-system="yes">
        <system-layout>
          <system-distance>61</system-distance>
        </system-layout>
      </print>
      <note default-x="91">
        <pitch>
          <step>B</step>
          <octave>4</octave>
        </pitch>
        <duration>1</duration>
        <voice>1</voice>
        <type>eighth</type>
        <stem default-y="-55">down</stem>
        <lyric default-y="-72" number="2">
          <syllabic>single</syllabic>
          <text>наш</text>
        </lyric>
      </note>
      <note default-x="147">
        <pitch>
          <step>B</step>
          <octave>4</octave>
        </pitch>
        <duration>1</duration>
        <voice>1</voice>
        <type>eighth</type>
        <stem default-y="-55">down</stem>
        <lyric default-y="-72" number="2">
          <syllabic>begin</syllabic>
          <text>ми</text>
        </lyric>
      </note>
      <note default-x="203">
        <pitch>
          <step>B</step>
          <octave>4</octave>
        </pitch>
        <duration>1</duration>
        <voice>1</voice>
        <type>eighth</type>
        <stem default-y="-55">down</stem>
        <lyric default-y="-72" number="2">
          <syllabic>end</syllabic>
          <text>лий</text>
        </lyric>
      </note>
    </measure>
    <!--=======================================================-->
    <measure number="10" width="195">
      <note default-x="20">
        <pitch>
          <step>A</step>
          <octave>4</octave>
        </pitch>
        <duration>2</duration>
        <voice>1</voice>
        <type>quarter</type>
        <stem default-y="10">up</stem>
        <lyric default-y="-72" number="2">
          <syllabic>begin</syllabic>
          <text>Бо</text>
        </lyric>
      </note>
      <note default-x="127">
        <pitch>
          <step>A</step>
          <octave>4</octave>
        </pitch>
        <duration>1</duration>
        <voice>1</voice>
        <type>eighth</type>
        <stem default-y="10">up</stem>
        <lyric default-y="-72" number="2">
          <syllabic>end</syllabic>
          <text>же,</text>
        </lyric>
      </note>
    </measure>
    <!--=======================================================-->
    <measure number="11" width="195">
      <note default-x="18">
        <pitch>
          <step>D</step>
          <octave>5</octave>
        </pitch>
        <duration>1</duration>
        <voice>1</voice>
        <type>eighth</type>
        <stem default-y="-45">down</stem>
        <lyric default-y="-72" number="2">
          <syllabic>single</syllabic>
          <text>на</text>
        </lyric>
      </note>
      <note default-x="77">
        <pitch>
          <step>D</step>
          <octave>5</octave>
        </pitch>
        <duration>1</duration>
        <voice>1</voice>
        <type>eighth</type>
        <stem default-y="-45">down</stem>
        <lyric default-y="-72" number="2">
          <syllabic>begin</syllabic>
          <text>не</text>
        </lyric>
      </note>
      <note default-x="135">
        <pitch>
          <step>D</step>
          <octave>5</octave>
        </pitch>
        <duration>1</duration>
        <voice>1</voice>
        <type>eighth</type>
        <stem default-y="-45">down</stem>
        <lyric default-y="-72" number="2">
          <syllabic>middle</syllabic>
          <text>бе</text>
        </lyric>
      </note>
    </measure>
    <!--=======================================================-->
    <measure number="12" width="194">
      <note default-x="22">
        <pitch>
          <step>G</step>
          <octave>4</octave>
        </pitch>
        <duration>3</duration>
        <voice>1</voice>
        <type>quarter</type>
        <dot/>
        <stem default-y="5">up</stem>
        <lyric default-y="-72" number="2">
          <syllabic>end</syllabic>
          <text>си!</text>
        </lyric>
      </note>
      <barline location="right">
        <bar-style>light-heavy</bar-style>
      </barline>
    </measure>
  </part>
  <!--=========================================================-->
</score-partwise>
