<?xml version="1.0" encoding="UTF-8" standalone="no"?>
<!DOCTYPE score-partwise PUBLIC "-//Recordare//DTD MusicXML 4.0 Partwise//EN" "http://www.musicxml.org/dtds/partwise.dtd">
<score-partwise version="4.0">
  <identification>
    <encoding>
      <software>Finale v27.3 for Windows</software>
      <encoding-date>2024-12-28</encoding-date>
      <supports attribute="new-system" element="print" type="yes" value="yes"/>
      <supports attribute="new-page" element="print" type="yes" value="yes"/>
      <supports element="accidental" type="yes"/>
      <supports element="beam" type="yes"/>
      <supports element="stem" type="yes"/>
    </encoding>
  </identification>
  <defaults>
    <scaling>
      <millimeters>8.4667</millimeters>
      <tenths>40</tenths>
    </scaling>
    <page-layout>
      <page-height>1320</page-height>
      <page-width>1020</page-width>
      <page-margins type="both">
        <left-margin>60</left-margin>
        <right-margin>60</right-margin>
        <top-margin>60</top-margin>
        <bottom-margin>60</bottom-margin>
      </page-margins>
    </page-layout>
    <system-layout>
      <system-margins>
        <left-margin>0</left-margin>
        <right-margin>0</right-margin>
      </system-margins>
      <system-distance>110</system-distance>
      <top-system-distance>67</top-system-distance>
    </system-layout>
    <appearance>
      <line-width type="stem">0.7682</line-width>
      <line-width type="beam">5</line-width>
      <line-width type="staff">0.7682</line-width>
      <line-width type="light barline">0.7682</line-width>
      <line-width type="heavy barline">5</line-width>
      <line-width type="leger">0.7682</line-width>
      <line-width type="ending">0.7682</line-width>
      <line-width type="wedge">0.7682</line-width>
      <line-width type="enclosure">0.7682</line-width>
      <line-width type="tuplet bracket">0.7682</line-width>
      <note-size type="grace">50</note-size>
      <note-size type="cue">50</note-size>
      <distance type="hyphen">60</distance>
      <distance type="beam">7.5</distance>
    </appearance>
    <music-font font-family="Finale Maestro,engraved" font-size="24"/>
    <word-font font-family="Times New Roman" font-size="12"/>
    <lyric-font font-family="Times New Roman" font-size="12"/>
  </defaults>
  <credit page="1">
    <credit-words default-x="315" default-y="1279" font-size="20" valign="top" xml:space="preserve">436. Ой Боже наш, Боже (Поховальна)
                 (На смерть тата)</credit-words>
  </credit>
  <credit page="1">
    <credit-words default-x="133" default-y="439" valign="top" xml:space="preserve">Зап. 26 липня 1986 р. М. К. Дмитренко у с. Яхнівці Волочиського р-ну Хмельницької обл. від 
Мамреги Віньки Вікторівни, 1918 р. н. Нотація Єфремової Л. О.							</credit-words>
    <credit-words font-size="1">.</credit-words>
  </credit>
  <credit page="1">
    <credit-words default-x="491" default-y="1206" valign="top">138</credit-words>
  </credit>
  <credit page="1">
    <credit-words default-x="119" default-y="985" font-size="17" valign="top" xml:space="preserve">1. Ой Боже наш, Боже, 
Боже наш ласкавий,
Вмерли наші тато, 
Самі ся зістали.
2. Самі ся зістали,
Самі ся лишили,
Ой Боже наш, Боже,
Як ми будем жили?
3. Як ми будем жити,
Будемо бідити,
Теперки нам треба
За всьо заплатити.
4. Як ми тата мали, –
Нічим не журили, 
Бо наші тато
Самі всьо зробили.</credit-words>
  </credit>
  <credit page="1">
    <credit-words default-x="326" default-y="1196" valign="top">1</credit-words>
  </credit>
  <credit page="1">
    <credit-words default-x="402" default-y="982" font-size="17" valign="top" xml:space="preserve">5. Ой як тато жили,
То й родина була,
Як тато померли,
Родина забула.
6. Забула родина,
Но ще є сусіди,
Вмерли наші тато
Та вже й назавсіди.
7. Піду я на цвинтар
Та й буду просити:
– Скажіть, татуненько,
Як я маю жити?
8. – Ой жий собі, доню,
Як знаєш сама,
Бо тяжка земленька
Руки прилягла.</credit-words>
  </credit>
  <credit page="1">
    <credit-words default-x="694" default-y="979" font-size="17" valign="top" xml:space="preserve">9. Прилягла земелька,
Що я вже не встану,
Ти вже маєш чоловіка
І ще маєш маму.
10. Ти ще маєш маму,
Вна буде родити,
Ви ще молоді,
Будете добре жити.
11. Ой мала я маму,
Ой мала я, мала,
Теперки я маму
Та й замуж віддала.
12. Віддала я маму,
...
Теперки ми будем
Ізнову самі.</credit-words>
  </credit>
  <part-list>
    <score-part id="P1">
      <part-name print-object="no">MusicXML Part</part-name>
      <group>score</group>
      <score-instrument id="P1-I1">
        <instrument-name>Èíñòðóìåíò 1</instrument-name>
      </score-instrument>
      <midi-instrument id="P1-I1">
        <midi-channel>1</midi-channel>
        <midi-program>1</midi-program>
        <volume>80</volume>
        <pan>0</pan>
      </midi-instrument>
    </score-part>
  </part-list>
  <!--=========================================================-->
  <part id="P1">
    <measure number="1" width="242">
      <print>
        <page-layout>
          <page-height>1320</page-height>
          <page-width>1020</page-width>
          <page-margins>
            <left-margin>121</left-margin>
            <right-margin>60</right-margin>
            <top-margin>60</top-margin>
            <bottom-margin>60</bottom-margin>
          </page-margins>
        </page-layout>
        <system-layout>
          <system-margins>
            <left-margin>64</left-margin>
            <right-margin>0</right-margin>
          </system-margins>
          <top-system-distance>82</top-system-distance>
        </system-layout>
        <measure-numbering>none</measure-numbering>
      </print>
      <attributes>
        <divisions>2</divisions>
        <key>
          <fifths>5</fifths>
          <mode>major</mode>
        </key>
        <time>
          <beats>2</beats>
          <beat-type>4</beat-type>
        </time>
        <clef>
          <sign>G</sign>
          <line>2</line>
          <clef-octave-change>-1</clef-octave-change>
        </clef>
      </attributes>
      <sound tempo="96">
        <swing>
          <straight/>
        </swing>
      </sound>
      <direction placement="above">
        <direction-type>
          <words default-y="13" relative-x="-5">quarter note equals</words>
        </direction-type>
      </direction>
      <note default-x="155">
        <pitch>
          <step>B</step>
          <octave>3</octave>
        </pitch>
        <duration>2</duration>
        <voice>1</voice>
        <type>quarter</type>
        <stem default-y="-55">down</stem>
        <lyric default-y="-74" number="1">
          <syllabic>single</syllabic>
          <text>1.</text>
          <elision> </elision>
          <syllabic>single</syllabic>
          <text>Ой</text>
        </lyric>
      </note>
      <note default-x="198">
        <pitch>
          <step>D</step>
          <alter>1</alter>
          <octave>4</octave>
        </pitch>
        <duration>2</duration>
        <voice>1</voice>
        <type>quarter</type>
        <stem default-y="-45">down</stem>
        <lyric default-y="-74" number="1">
          <syllabic>begin</syllabic>
          <text>Бо</text>
        </lyric>
      </note>
    </measure>
    <!--=======================================================-->
    <measure number="2" width="172">
      <note default-x="13">
        <pitch>
          <step>C</step>
          <alter>1</alter>
          <octave>4</octave>
        </pitch>
        <duration>1</duration>
        <voice>1</voice>
        <type>eighth</type>
        <stem default-y="-50">down</stem>
        <lyric default-y="-74" number="1">
          <syllabic>end</syllabic>
          <text>же</text>
        </lyric>
      </note>
      <note default-x="54">
        <pitch>
          <step>B</step>
          <octave>3</octave>
        </pitch>
        <duration>1</duration>
        <voice>1</voice>
        <type>eighth</type>
        <stem default-y="-55">down</stem>
        <lyric default-y="-74" number="1">
          <syllabic>single</syllabic>
          <text>наш,</text>
        </lyric>
      </note>
      <note default-x="96">
        <pitch>
          <step>C</step>
          <alter>1</alter>
          <octave>4</octave>
        </pitch>
        <duration>1</duration>
        <voice>1</voice>
        <type>eighth</type>
        <stem default-y="-50">down</stem>
        <lyric default-y="-74" number="1">
          <syllabic>begin</syllabic>
          <text>Бо</text>
        </lyric>
      </note>
      <note default-x="134">
        <pitch>
          <step>F</step>
          <alter>1</alter>
          <octave>3</octave>
        </pitch>
        <duration>1</duration>
        <voice>1</voice>
        <type>eighth</type>
        <stem default-y="0">up</stem>
        <lyric default-y="-74" number="1">
          <syllabic>end</syllabic>
          <text>же,</text>
        </lyric>
      </note>
    </measure>
    <!--=======================================================-->
    <measure number="3" width="91">
      <note default-x="13">
        <pitch>
          <step>B</step>
          <octave>3</octave>
        </pitch>
        <duration>2</duration>
        <voice>1</voice>
        <type>quarter</type>
        <stem default-y="-55">down</stem>
        <lyric default-y="-74" number="1">
          <syllabic>begin</syllabic>
          <text>Бо</text>
        </lyric>
      </note>
      <note default-x="52">
        <pitch>
          <step>E</step>
          <octave>4</octave>
        </pitch>
        <duration>2</duration>
        <voice>1</voice>
        <type>quarter</type>
        <stem default-y="-40">down</stem>
        <lyric default-y="-74" number="1">
          <syllabic>end</syllabic>
          <text>же</text>
        </lyric>
      </note>
    </measure>
    <!--=======================================================-->
    <measure number="4" width="173">
      <note default-x="13">
        <pitch>
          <step>C</step>
          <alter>1</alter>
          <octave>4</octave>
        </pitch>
        <duration>1</duration>
        <voice>1</voice>
        <type>eighth</type>
        <stem default-y="-50">down</stem>
        <lyric default-y="-74" number="1">
          <syllabic>single</syllabic>
          <text>наш</text>
        </lyric>
      </note>
      <note default-x="55">
        <pitch>
          <step>E</step>
          <octave>4</octave>
        </pitch>
        <duration>1</duration>
        <voice>1</voice>
        <type>eighth</type>
        <stem default-y="-40">down</stem>
        <lyric default-y="-74" number="1">
          <syllabic>begin</syllabic>
          <text>лас</text>
        </lyric>
      </note>
      <note default-x="93">
        <pitch>
          <step>D</step>
          <alter>1</alter>
          <octave>4</octave>
        </pitch>
        <duration>1</duration>
        <voice>1</voice>
        <type>eighth</type>
        <stem default-y="-45">down</stem>
        <lyric default-y="-74" number="1">
          <syllabic>middle</syllabic>
          <text>ка</text>
        </lyric>
      </note>
      <note default-x="133">
        <pitch>
          <step>C</step>
          <alter>1</alter>
          <octave>4</octave>
        </pitch>
        <duration>1</duration>
        <voice>1</voice>
        <type>eighth</type>
        <stem default-y="-50">down</stem>
        <lyric default-y="-74" number="1">
          <syllabic>end</syllabic>
          <text>вий,</text>
        </lyric>
      </note>
    </measure>
    <!--=======================================================-->
    <measure number="5" width="97">
      <note default-x="13">
        <pitch>
          <step>B</step>
          <octave>3</octave>
        </pitch>
        <duration>2</duration>
        <voice>1</voice>
        <type>quarter</type>
        <stem default-y="-55">down</stem>
        <lyric default-y="-74" number="1">
          <syllabic>begin</syllabic>
          <text>вмер</text>
        </lyric>
      </note>
      <note default-x="55">
        <pitch>
          <step>D</step>
          <alter>1</alter>
          <octave>4</octave>
        </pitch>
        <duration>2</duration>
        <voice>1</voice>
        <type>quarter</type>
        <stem default-y="-45">down</stem>
        <lyric default-y="-74" number="1">
          <syllabic>end</syllabic>
          <text>ли</text>
        </lyric>
      </note>
    </measure>
    <!--=======================================================-->
    <measure number="6" width="273">
      <print new-system="yes">
        <system-layout>
          <system-distance>55</system-distance>
        </system-layout>
      </print>
      <note default-x="123">
        <pitch>
          <step>C</step>
          <alter>1</alter>
          <octave>4</octave>
        </pitch>
        <duration>1</duration>
        <voice>1</voice>
        <type>eighth</type>
        <stem default-y="-50">down</stem>
        <lyric default-y="-74" number="1">
          <syllabic>begin</syllabic>
          <text>на</text>
        </lyric>
      </note>
      <note default-x="160">
        <pitch>
          <step>B</step>
          <octave>3</octave>
        </pitch>
        <duration>1</duration>
        <voice>1</voice>
        <type>eighth</type>
        <stem default-y="-55">down</stem>
        <lyric default-y="-74" number="1">
          <syllabic>end</syllabic>
          <text>ші</text>
        </lyric>
      </note>
      <note default-x="198">
        <pitch>
          <step>C</step>
          <alter>1</alter>
          <octave>4</octave>
        </pitch>
        <duration>1</duration>
        <voice>1</voice>
        <type>eighth</type>
        <stem default-y="-50">down</stem>
        <lyric default-y="-74" number="1">
          <syllabic>begin</syllabic>
          <text>та</text>
        </lyric>
      </note>
      <note default-x="235">
        <pitch>
          <step>B</step>
          <octave>3</octave>
        </pitch>
        <duration>1</duration>
        <voice>1</voice>
        <type>eighth</type>
        <stem default-y="-55">down</stem>
        <lyric default-y="-74" number="1">
          <syllabic>end</syllabic>
          <text>то,</text>
        </lyric>
      </note>
    </measure>
    <!--=======================================================-->
    <measure number="7" width="105">
      <note default-x="13">
        <pitch>
          <step>A</step>
          <alter>1</alter>
          <octave>3</octave>
        </pitch>
        <duration>2</duration>
        <voice>1</voice>
        <type>quarter</type>
        <stem default-y="10">up</stem>
        <lyric default-y="-74" number="1">
          <syllabic>begin</syllabic>
          <text>са</text>
        </lyric>
      </note>
      <note default-x="59">
        <pitch>
          <step>C</step>
          <alter>1</alter>
          <octave>4</octave>
        </pitch>
        <duration>2</duration>
        <voice>1</voice>
        <type>quarter</type>
        <stem default-y="-50">down</stem>
        <lyric default-y="-74" number="1">
          <syllabic>end</syllabic>
          <text>мі</text>
        </lyric>
      </note>
    </measure>
    <!--=======================================================-->
    <measure number="8" width="177">
      <note default-x="13">
        <pitch>
          <step>B</step>
          <octave>3</octave>
        </pitch>
        <duration>1</duration>
        <voice>1</voice>
        <type>eighth</type>
        <stem default-y="-55">down</stem>
        <lyric default-y="-74" number="1">
          <syllabic>single</syllabic>
          <text>ся</text>
        </lyric>
      </note>
      <note default-x="52">
        <pitch>
          <step>B</step>
          <octave>3</octave>
        </pitch>
        <duration>1</duration>
        <voice>1</voice>
        <type>eighth</type>
        <stem default-y="-55">down</stem>
        <lyric default-y="-74" number="1">
          <syllabic>begin</syllabic>
          <text>зіс</text>
        </lyric>
      </note>
      <note default-x="90">
        <pitch>
          <step>B</step>
          <octave>3</octave>
        </pitch>
        <duration>1</duration>
        <voice>1</voice>
        <type>eighth</type>
        <stem default-y="-55">down</stem>
        <lyric default-y="-74" number="1">
          <syllabic>middle</syllabic>
          <text>та</text>
        </lyric>
      </note>
      <note default-x="128">
        <pitch>
          <step>B</step>
          <octave>3</octave>
        </pitch>
        <duration>1</duration>
        <voice>1</voice>
        <type>eighth</type>
        <stem default-y="-55">down</stem>
        <lyric default-y="-74" number="1">
          <syllabic>end</syllabic>
          <text>ли.</text>
        </lyric>
      </note>
      <barline location="right">
        <bar-style>light-heavy</bar-style>
      </barline>
    </measure>
    <!--=======================================================-->
    <measure number="9" width="111">
      <direction placement="above">
        <direction-type>
          <words default-y="6" relative-x="-7">1</words>
        </direction-type>
      </direction>
      <note default-x="13">
        <pitch>
          <step>F</step>
          <alter>1</alter>
          <octave>3</octave>
        </pitch>
        <duration>2</duration>
        <voice>1</voice>
        <type>quarter</type>
        <stem default-y="0">up</stem>
        <lyric default-y="-74" number="1">
          <syllabic>single</syllabic>
          <text>2.</text>
          <elision> </elision>
          <syllabic>begin</syllabic>
          <text>Са</text>
        </lyric>
      </note>
      <note default-x="62">
        <pitch>
          <step>B</step>
          <octave>3</octave>
        </pitch>
        <duration>2</duration>
        <voice>1</voice>
        <type>quarter</type>
        <stem default-y="-55">down</stem>
        <lyric default-y="-74" number="1">
          <syllabic>end</syllabic>
          <text>мі</text>
        </lyric>
      </note>
    </measure>
    <!--=======================================================-->
    <measure number="10" width="173">
      <note default-x="13">
        <pitch>
          <step>D</step>
          <alter>1</alter>
          <octave>4</octave>
        </pitch>
        <duration>1</duration>
        <voice>1</voice>
        <type>eighth</type>
        <stem default-y="-45">down</stem>
        <lyric default-y="-74" number="1">
          <syllabic>single</syllabic>
          <text>ся</text>
        </lyric>
      </note>
      <note default-x="51">
        <pitch>
          <step>C</step>
          <alter>1</alter>
          <octave>4</octave>
        </pitch>
        <duration>1</duration>
        <voice>1</voice>
        <type>eighth</type>
        <stem default-y="-50">down</stem>
        <lyric default-y="-74" number="1">
          <syllabic>begin</syllabic>
          <text>зі</text>
        </lyric>
      </note>
      <note default-x="88">
        <pitch>
          <step>B</step>
          <octave>3</octave>
        </pitch>
        <duration>1</duration>
        <voice>1</voice>
        <type>eighth</type>
        <stem default-y="-55">down</stem>
        <lyric default-y="-74" number="1">
          <syllabic>middle</syllabic>
          <text>ста</text>
        </lyric>
      </note>
      <note default-x="125">
        <pitch>
          <step>F</step>
          <alter>1</alter>
          <octave>3</octave>
        </pitch>
        <duration>1</duration>
        <voice>1</voice>
        <type>eighth</type>
        <stem default-y="0">up</stem>
        <lyric default-y="-74" number="1">
          <syllabic>end</syllabic>
          <text>ли</text>
        </lyric>
      </note>
      <barline location="right">
        <bar-style>light-heavy</bar-style>
      </barline>
    </measure>
  </part>
  <!--=========================================================-->
</score-partwise>
