<?xml version="1.0" encoding="UTF-8" standalone="no"?>
<!DOCTYPE score-partwise PUBLIC "-//Recordare//DTD MusicXML 4.0 Partwise//EN" "http://www.musicxml.org/dtds/partwise.dtd">
<score-partwise version="4.0">
  <identification>
    <encoding>
      <software>Finale v27.3 for Windows</software>
      <encoding-date>2025-01-04</encoding-date>
      <supports attribute="new-system" element="print" type="yes" value="yes"/>
      <supports attribute="new-page" element="print" type="yes" value="yes"/>
      <supports element="accidental" type="yes"/>
      <supports element="beam" type="yes"/>
      <supports element="stem" type="yes"/>
    </encoding>
  </identification>
  <defaults>
    <scaling>
      <millimeters>8.4667</millimeters>
      <tenths>40</tenths>
    </scaling>
    <page-layout>
      <page-height>1320</page-height>
      <page-width>1020</page-width>
      <page-margins type="both">
        <left-margin>60</left-margin>
        <right-margin>60</right-margin>
        <top-margin>60</top-margin>
        <bottom-margin>60</bottom-margin>
      </page-margins>
    </page-layout>
    <system-layout>
      <system-margins>
        <left-margin>0</left-margin>
        <right-margin>0</right-margin>
      </system-margins>
      <system-distance>110</system-distance>
      <top-system-distance>67</top-system-distance>
    </system-layout>
    <appearance>
      <line-width type="stem">0.7682</line-width>
      <line-width type="beam">5</line-width>
      <line-width type="staff">0.7682</line-width>
      <line-width type="light barline">0.7682</line-width>
      <line-width type="heavy barline">5</line-width>
      <line-width type="leger">0.7682</line-width>
      <line-width type="ending">0.7682</line-width>
      <line-width type="wedge">0.7682</line-width>
      <line-width type="enclosure">0.7682</line-width>
      <line-width type="tuplet bracket">0.7682</line-width>
      <note-size type="grace">50</note-size>
      <note-size type="cue">50</note-size>
      <distance type="hyphen">60</distance>
      <distance type="beam">7.5</distance>
    </appearance>
    <music-font font-family="Finale Maestro,engraved" font-size="24"/>
    <word-font font-family="Times New Roman" font-size="12"/>
    <lyric-font font-family="Times New Roman" font-size="12"/>
  </defaults>
  <credit page="1">
    <credit-words default-x="120" default-y="143" valign="top" xml:space="preserve">Зап. у лютому 2007 р. Кушка Т. Я., Матіяш Д. В. у с. Забужжя Немирівського р-ну Вінницької обл.
від Розборської Ф. Ф. Розшифр. Єфремова Л. О. № 8 (545). Мама співала, як кужіль пряла. Дівча-
та співають під час того, як роблять коровай. А мама плаче. (Прим. вик.)</credit-words>
  </credit>
  <credit page="1">
    <credit-words default-x="334" default-y="1116" font-size="19" valign="top">509. Добрий вечір, столи-вали (ОР-В6)</credit-words>
  </credit>
  <credit page="1">
    <credit-words default-x="120" default-y="778" font-size="17" valign="top" xml:space="preserve">1. – Добрий вечір, столи-вали, (2)
Ше й стіни мальовани.
2. Хто вас буде малювати, (2)
Як віддасть дочку мати?
3. – Буде мати малювати, (2)
За дочку споминати:
4. – Ой десь моя й ди(е)тина, (2)
Як у полі билина?
5. Ой десь вона тяжко робить, (2)
Нікому не догодить.
6. Ні свекрові, ні(є) свекрусі, (2)
Ні молодий зовиці.
7. Самі сіли вечеряти, (2)
Невістка – й воду брати.
8. Іде невістка й по воду (2)
До широкого броду.
9. По каменцях ступала, (2)
Не повни відра брала.</credit-words>
  </credit>
  <credit page="1">
    <credit-words default-x="561" default-y="778" font-size="17" valign="top" xml:space="preserve">10. Не повни відра брала, (2)
Слізоньками доливала.
11. Поки з водою прийшла, (2)
Вечеронька відійшла.
12. Самі стали воду пити, (2)
Невістка – й ложки мити.
13. – Помий, невістко, ложки, (2)
Та й позаглядай в горшки.
14. – Вже ж бо я й вечеряла, (2)
Якби матінка знала.
15. Якби й матінка знала, (2)
Вечероньку б прислала
16. Мсяченьком 
                        яснесеньки(і)м, (2)
Братіком ріднесеньким,
17. Із зорою ясною, (2)
Рі(и)дненькою сестрою.</credit-words>
  </credit>
  <credit page="1">
    <credit-words default-x="437" default-y="1075" valign="top">75 Повільно</credit-words>
  </credit>
  <part-list>
    <score-part id="P1">
      <part-name print-object="no">MusicXML Part</part-name>
      <group>score</group>
      <score-instrument id="P1-I1">
        <instrument-name>Èíñòðóìåíò 1</instrument-name>
      </score-instrument>
      <midi-instrument id="P1-I1">
        <midi-channel>1</midi-channel>
        <midi-program>1</midi-program>
        <volume>80</volume>
        <pan>0</pan>
      </midi-instrument>
    </score-part>
  </part-list>
  <!--=========================================================-->
  <part id="P1">
    <measure number="1" width="322">
      <print>
        <page-layout>
          <page-height>1320</page-height>
          <page-width>1020</page-width>
          <page-margins>
            <left-margin>119</left-margin>
            <right-margin>60</right-margin>
            <top-margin>60</top-margin>
            <bottom-margin>60</bottom-margin>
          </page-margins>
        </page-layout>
        <system-layout>
          <system-margins>
            <left-margin>61</left-margin>
            <right-margin>0</right-margin>
          </system-margins>
          <top-system-distance>224</top-system-distance>
        </system-layout>
        <measure-numbering>none</measure-numbering>
      </print>
      <attributes>
        <divisions>2</divisions>
        <key>
          <fifths>0</fifths>
          <mode>major</mode>
        </key>
        <time>
          <beats>3</beats>
          <beat-type>4</beat-type>
        </time>
        <clef>
          <sign>G</sign>
          <line>2</line>
          <clef-octave-change>-1</clef-octave-change>
        </clef>
      </attributes>
      <sound tempo="75">
        <swing>
          <straight/>
        </swing>
      </sound>
      <direction placement="above">
        <direction-type>
          <words default-y="19">quarter note equals</words>
        </direction-type>
      </direction>
      <note default-x="83">
        <pitch>
          <step>E</step>
          <octave>3</octave>
        </pitch>
        <duration>1</duration>
        <voice>1</voice>
        <type>eighth</type>
        <stem default-y="-5">up</stem>
        <notations>
          <slur bezier-x="19" bezier-y="-16" dash-length="7.5" default-x="6" default-y="-50" line-type="dashed" number="1" placement="below" space-length="7.5" type="start"/>
        </notations>
        <lyric default-y="-76" number="1" relative-x="7">
          <syllabic>single</syllabic>
          <text>1.</text>
          <elision> </elision>
          <syllabic>single</syllabic>
          <text>–</text>
          <elision> </elision>
          <syllabic>begin</syllabic>
          <text>До</text>
        </lyric>
      </note>
      <note default-x="151">
        <pitch>
          <step>E</step>
          <octave>3</octave>
        </pitch>
        <duration>1</duration>
        <voice>1</voice>
        <type>eighth</type>
        <stem default-y="-5">up</stem>
        <notations>
          <slur bezier-x="-19" bezier-y="-16" default-x="6" default-y="-50" number="1" type="stop"/>
        </notations>
        <lyric default-y="-76" number="1">
          <syllabic>end</syllabic>
          <text>брий</text>
        </lyric>
      </note>
      <note default-x="198">
        <pitch>
          <step>A</step>
          <octave>3</octave>
        </pitch>
        <duration>2</duration>
        <voice>1</voice>
        <type>quarter</type>
        <stem default-y="10">up</stem>
        <lyric default-y="-76" number="1">
          <syllabic>begin</syllabic>
          <text>ве</text>
        </lyric>
      </note>
      <note default-x="253">
        <pitch>
          <step>C</step>
          <octave>4</octave>
        </pitch>
        <duration>1</duration>
        <voice>1</voice>
        <type>eighth</type>
        <stem default-y="-55">down</stem>
        <beam number="1">begin</beam>
        <notations>
          <slur bezier-x="13" bezier-y="7" default-x="6" default-y="-5" number="1" placement="above" type="start"/>
        </notations>
        <lyric default-y="-76" number="1" relative-x="3">
          <syllabic>end</syllabic>
          <text>чір,</text>
        </lyric>
      </note>
      <note default-x="288">
        <pitch>
          <step>A</step>
          <octave>3</octave>
        </pitch>
        <duration>1</duration>
        <voice>1</voice>
        <type>eighth</type>
        <stem default-y="-60">down</stem>
        <beam number="1">end</beam>
        <notations>
          <slur bezier-x="-7" bezier-y="13" default-x="6" default-y="-15" number="1" type="stop"/>
        </notations>
      </note>
    </measure>
    <!--=======================================================-->
    <measure number="2" width="170">
      <note default-x="13">
        <pitch>
          <step>D</step>
          <octave>4</octave>
        </pitch>
        <duration>2</duration>
        <voice>1</voice>
        <type>quarter</type>
        <stem default-y="-45">down</stem>
        <notations>
          <slur bezier-x="25" bezier-y="21" dash-length="7.5" default-x="-3" default-y="4" line-type="dashed" number="1" placement="above" space-length="7.5" type="start"/>
        </notations>
        <lyric default-y="-76" number="1">
          <syllabic>begin</syllabic>
          <text>сто</text>
        </lyric>
      </note>
      <note default-x="61">
        <pitch>
          <step>C</step>
          <octave>4</octave>
        </pitch>
        <duration>2</duration>
        <voice>1</voice>
        <type>quarter</type>
        <stem default-y="-50">down</stem>
        <notations>
          <slur bezier-x="11" bezier-y="15" default-x="6" default-y="-5" number="2" placement="above" type="start"/>
        </notations>
        <lyric default-y="-76" number="1" relative-x="4">
          <syllabic>middle</syllabic>
          <text>ли</text>
        </lyric>
      </note>
      <note default-x="109">
        <pitch>
          <step>A</step>
          <octave>3</octave>
        </pitch>
        <duration>1</duration>
        <voice>1</voice>
        <type>eighth</type>
        <stem default-y="10">up</stem>
        <notations>
          <slur bezier-x="-16" bezier-y="10" default-x="7" default-y="3" number="2" type="stop"/>
          <slur bezier-x="-25" bezier-y="21" default-x="-3" default-y="4" number="1" type="stop"/>
        </notations>
      </note>
      <direction placement="below">
        <direction-type>
          <words default-y="-19">( )</words>
        </direction-type>
      </direction>
      <note default-x="139">
        <rest/>
        <duration>1</duration>
        <voice>1</voice>
        <type>eighth</type>
      </note>
    </measure>
    <!--=======================================================-->
    <measure number="3" width="288">
      <attributes>
        <time symbol="common">
          <beats>4</beats>
          <beat-type>4</beat-type>
        </time>
      </attributes>
      <note default-x="45">
        <pitch>
          <step>A</step>
          <octave>3</octave>
        </pitch>
        <duration>1</duration>
        <voice>1</voice>
        <type>eighth</type>
        <stem default-y="10">up</stem>
        <notations>
          <slur bezier-x="12" bezier-y="11" default-x="23" default-y="3" number="1" orientation="over" type="start"/>
        </notations>
        <lyric default-y="-76" number="1">
          <syllabic>middle</syllabic>
          <text>ва</text>
        </lyric>
      </note>
      <direction placement="below">
        <direction-type>
          <words default-y="-21">( )</words>
        </direction-type>
      </direction>
      <note default-x="75">
        <rest/>
        <duration>1</duration>
        <voice>1</voice>
        <type>eighth</type>
      </note>
      <note default-x="104">
        <pitch>
          <step>D</step>
          <octave>4</octave>
        </pitch>
        <duration>2</duration>
        <voice>1</voice>
        <type>quarter</type>
        <stem default-y="-45">down</stem>
        <notations>
          <slur bezier-x="-12" bezier-y="11" default-x="6" default-y="3" number="1" type="stop"/>
        </notations>
      </note>
      <note default-x="151">
        <pitch>
          <step>C</step>
          <octave>4</octave>
        </pitch>
        <duration>2</duration>
        <voice>1</voice>
        <type>quarter</type>
        <stem default-y="-50">down</stem>
        <notations>
          <slur bezier-x="20" bezier-y="17" default-x="6" default-y="-5" number="1" placement="above" type="start"/>
        </notations>
        <lyric default-y="-76" number="1" relative-x="9">
          <syllabic>end</syllabic>
          <text>ли,</text>
        </lyric>
      </note>
      <note default-x="198">
        <pitch>
          <step>D</step>
          <octave>4</octave>
        </pitch>
        <duration>1</duration>
        <voice>1</voice>
        <type>eighth</type>
        <stem default-y="-45">down</stem>
        <beam number="1">begin</beam>
      </note>
      <note default-x="227">
        <pitch>
          <step>C</step>
          <octave>4</octave>
        </pitch>
        <duration>1</duration>
        <voice>1</voice>
        <type>eighth</type>
        <stem default-y="-50">down</stem>
        <beam number="1">end</beam>
        <notations>
          <slur bezier-x="-20" bezier-y="17" default-x="6" default-y="-5" number="1" type="stop"/>
        </notations>
      </note>
    </measure>
    <!--=======================================================-->
    <measure number="4" width="310">
      <print new-system="yes">
        <system-layout>
          <system-distance>53</system-distance>
        </system-layout>
      </print>
      <attributes>
        <time>
          <beats>3</beats>
          <beat-type>4</beat-type>
        </time>
      </attributes>
      <direction placement="below">
        <direction-type>
          <words default-y="-6" relative-x="-16">1</words>
        </direction-type>
      </direction>
      <note default-x="83">
        <pitch>
          <step>A</step>
          <octave>3</octave>
        </pitch>
        <duration>1</duration>
        <voice>1</voice>
        <type>eighth</type>
        <stem default-y="10">up</stem>
        <lyric default-y="-65" number="1">
          <syllabic>begin</syllabic>
          <text>до</text>
        </lyric>
      </note>
      <note default-x="126">
        <pitch>
          <step>A</step>
          <octave>3</octave>
        </pitch>
        <duration>1</duration>
        <voice>1</voice>
        <type>eighth</type>
        <stem default-y="10">up</stem>
        <lyric default-y="-65" number="1">
          <syllabic>end</syllabic>
          <text>брий</text>
        </lyric>
      </note>
      <note default-x="168">
        <pitch>
          <step>B</step>
          <octave>3</octave>
        </pitch>
        <duration>2</duration>
        <voice>1</voice>
        <type>quarter</type>
        <stem default-y="-55">down</stem>
        <lyric default-y="-65" number="1">
          <syllabic>begin</syllabic>
          <text>ве</text>
        </lyric>
      </note>
      <note default-x="230">
        <pitch>
          <step>A</step>
          <octave>3</octave>
        </pitch>
        <duration>1</duration>
        <voice>1</voice>
        <type>eighth</type>
        <stem default-y="10">up</stem>
        <lyric default-y="-65" number="1" relative-x="6">
          <syllabic>end</syllabic>
          <text>чір,</text>
        </lyric>
      </note>
      <note default-x="270">
        <rest/>
        <duration>1</duration>
        <voice>1</voice>
        <type>eighth</type>
      </note>
    </measure>
    <!--=======================================================-->
    <measure number="5" width="158">
      <direction placement="below">
        <direction-type>
          <words default-y="-5" relative-x="-7">2</words>
        </direction-type>
      </direction>
      <note default-x="13">
        <pitch>
          <step>C</step>
          <octave>4</octave>
        </pitch>
        <duration>2</duration>
        <voice>1</voice>
        <type>quarter</type>
        <stem default-y="-50">down</stem>
        <notations>
          <slur bezier-x="25" bezier-y="21" dash-length="7.5" default-x="6" default-y="-5" line-type="dashed" number="1" placement="above" space-length="7.5" type="start"/>
        </notations>
        <lyric default-y="-65" number="1">
          <syllabic>begin</syllabic>
          <text>сто</text>
        </lyric>
      </note>
      <note default-x="61">
        <pitch>
          <step>B</step>
          <octave>3</octave>
        </pitch>
        <duration>2</duration>
        <voice>1</voice>
        <type>quarter</type>
        <stem default-y="-55">down</stem>
        <notations>
          <slur bezier-x="13" bezier-y="13" default-x="6" default-y="-7" number="2" placement="above" type="start"/>
        </notations>
        <lyric default-y="-65" number="1" relative-x="4">
          <syllabic>middle</syllabic>
          <text>ли</text>
        </lyric>
      </note>
      <note default-x="109">
        <pitch>
          <step>C</step>
          <octave>4</octave>
        </pitch>
        <duration>2</duration>
        <voice>1</voice>
        <type>quarter</type>
        <stem default-y="-50">down</stem>
        <notations>
          <slur bezier-x="-14" bezier-y="12" default-x="6" default-y="-5" number="2" type="stop"/>
          <slur bezier-x="-25" bezier-y="21" default-x="6" default-y="-5" number="1" type="stop"/>
        </notations>
      </note>
    </measure>
    <!--=======================================================-->
    <measure number="6" width="180">
      <note default-x="13">
        <grace slash="yes"/>
        <pitch>
          <step>C</step>
          <octave>4</octave>
        </pitch>
        <voice>1</voice>
        <type>eighth</type>
        <stem default-y="3">up</stem>
        <notations>
          <slur bezier-x="2" bezier-y="-7" default-x="3" default-y="-23" number="1" placement="below" type="start"/>
        </notations>
      </note>
      <note default-x="33">
        <pitch>
          <step>B</step>
          <octave>3</octave>
        </pitch>
        <duration>2</duration>
        <voice>1</voice>
        <type>quarter</type>
        <stem default-y="-55">down</stem>
        <notations>
          <slur bezier-x="-5" bezier-y="-5" default-x="-4" default-y="-27" number="1" type="stop"/>
        </notations>
        <lyric default-y="-65" number="1">
          <syllabic>middle</syllabic>
          <text>ва</text>
        </lyric>
      </note>
      <note default-x="83">
        <pitch>
          <step>A</step>
          <octave>3</octave>
        </pitch>
        <duration>3</duration>
        <voice>1</voice>
        <type>quarter</type>
        <dot/>
        <stem default-y="10">up</stem>
        <notations>
          <glissando line-type="wavy" number="1" relative-x="10" type="start"/>
        </notations>
        <lyric default-y="-65" number="1">
          <syllabic>end</syllabic>
          <text>ли</text>
        </lyric>
      </note>
      <note default-x="148">
        <rest/>
        <duration>1</duration>
        <voice>1</voice>
        <type>eighth</type>
      </note>
    </measure>
    <!--=======================================================-->
    <measure number="7" width="193">
      <note default-x="13">
        <pitch>
          <step>A</step>
          <octave>3</octave>
        </pitch>
        <duration>1</duration>
        <voice>1</voice>
        <type>eighth</type>
        <stem default-y="10">up</stem>
        <beam number="1">begin</beam>
        <notations>
          <glissando line-type="wavy" number="1" relative-x="-45" relative-y="-24" type="stop"/>
          <slur bezier-x="7" bezier-y="-12" default-x="6" default-y="-35" number="1" placement="below" type="start"/>
        </notations>
        <lyric default-y="-65" number="1">
          <syllabic>single</syllabic>
          <text>ше</text>
          <elision> </elision>
          <syllabic>single</syllabic>
          <text>й</text>
        </lyric>
      </note>
      <direction placement="below">
        <direction-type>
          <words default-y="-34">(</words>
        </direction-type>
      </direction>
      <direction placement="below">
        <direction-type>
          <words default-y="-35">)</words>
        </direction-type>
      </direction>
      <note default-x="45">
        <pitch>
          <step>G</step>
          <alter>1</alter>
          <octave>3</octave>
        </pitch>
        <duration>1</duration>
        <voice>1</voice>
        <type>eighth</type>
        <accidental>sharp</accidental>
        <stem default-y="5">up</stem>
        <beam number="1">end</beam>
        <notations>
          <slur bezier-x="-12" bezier-y="-7" default-x="6" default-y="-43" number="1" type="stop"/>
        </notations>
      </note>
      <note default-x="77">
        <pitch>
          <step>A</step>
          <octave>3</octave>
        </pitch>
        <duration>2</duration>
        <voice>1</voice>
        <type>quarter</type>
        <stem default-y="10">up</stem>
        <lyric default-y="-65" number="1">
          <syllabic>begin</syllabic>
          <text>сті</text>
        </lyric>
      </note>
      <note default-x="129">
        <pitch>
          <step>B</step>
          <octave>3</octave>
        </pitch>
        <duration>1</duration>
        <voice>1</voice>
        <type>eighth</type>
        <stem default-y="-55">down</stem>
        <lyric default-y="-65" number="1" relative-x="4">
          <syllabic>end</syllabic>
          <text>ни</text>
        </lyric>
      </note>
      <direction placement="below">
        <direction-type>
          <words default-y="-21">( )</words>
        </direction-type>
      </direction>
      <note default-x="160">
        <rest/>
        <duration>1</duration>
        <voice>1</voice>
        <type>eighth</type>
      </note>
    </measure>
    <!--=======================================================-->
    <measure number="8" width="174">
      <print new-system="yes">
        <system-layout>
          <system-distance>44</system-distance>
        </system-layout>
      </print>
      <direction placement="below">
        <direction-type>
          <words default-y="-3">3</words>
        </direction-type>
      </direction>
      <note default-x="50">
        <pitch>
          <step>A</step>
          <octave>3</octave>
        </pitch>
        <duration>2</duration>
        <voice>1</voice>
        <type>quarter</type>
        <stem default-y="10">up</stem>
        <lyric default-y="-69" number="1">
          <syllabic>begin</syllabic>
          <text>ма</text>
        </lyric>
      </note>
      <note default-x="88">
        <pitch>
          <step>B</step>
          <octave>3</octave>
        </pitch>
        <duration>2</duration>
        <voice>1</voice>
        <type>quarter</type>
        <stem default-y="-55">down</stem>
        <notations>
          <slur bezier-x="17" bezier-y="15" default-x="6" default-y="-7" number="1" placement="above" type="start"/>
        </notations>
        <lyric default-y="-69" number="1" relative-x="8">
          <syllabic>middle</syllabic>
          <text>льо</text>
        </lyric>
      </note>
      <direction placement="below">
        <direction-type>
          <words default-y="-21">(</words>
        </direction-type>
      </direction>
      <note default-x="126">
        <pitch>
          <step>C</step>
          <octave>4</octave>
        </pitch>
        <duration>1</duration>
        <voice>1</voice>
        <type>eighth</type>
        <stem default-y="-50">down</stem>
        <beam number="1">begin</beam>
      </note>
      <direction placement="below">
        <direction-type>
          <words default-y="-22">)</words>
        </direction-type>
      </direction>
      <note default-x="150">
        <pitch>
          <step>B</step>
          <octave>3</octave>
        </pitch>
        <duration>1</duration>
        <voice>1</voice>
        <type>eighth</type>
        <stem default-y="-55">down</stem>
        <beam number="1">end</beam>
        <notations>
          <slur bezier-x="-17" bezier-y="15" default-x="6" default-y="-7" number="1" type="stop"/>
          <glissando line-type="wavy" number="1" relative-x="44" relative-y="-10" type="start"/>
        </notations>
      </note>
    </measure>
    <!--=======================================================-->
    <measure number="9" width="123">
      <note default-x="13">
        <pitch>
          <step>A</step>
          <octave>3</octave>
        </pitch>
        <duration>4</duration>
        <voice>1</voice>
        <type>half</type>
        <stem default-y="10">up</stem>
        <notations>
          <glissando line-type="wavy" number="1" relative-x="56" relative-y="-27" type="stop"/>
        </notations>
        <lyric default-y="-69" number="1" relative-x="16">
          <syllabic>end</syllabic>
          <text>ван(и).</text>
        </lyric>
      </note>
      <note default-x="75">
        <rest/>
        <duration>2</duration>
        <voice>1</voice>
        <type>quarter</type>
      </note>
      <barline location="right">
        <bar-style>light-heavy</bar-style>
      </barline>
    </measure>
    <!--=======================================================-->
    <measure number="10" width="149">
      <direction placement="below">
        <direction-type>
          <words default-y="-1" relative-x="-15">1</words>
        </direction-type>
      </direction>
      <note default-x="24">
        <pitch>
          <step>B</step>
          <alter>-1</alter>
          <octave>3</octave>
        </pitch>
        <duration>1</duration>
        <voice>1</voice>
        <type>eighth</type>
        <accidental>flat</accidental>
        <stem default-y="-55">down</stem>
        <lyric default-y="-69" number="1" relative-x="-9">
          <syllabic>single</syllabic>
          <text>10.</text>
          <elision> </elision>
          <syllabic>single</syllabic>
          <text>не</text>
        </lyric>
      </note>
      <note default-x="48">
        <rest/>
        <duration>1</duration>
        <voice>1</voice>
        <type>eighth</type>
      </note>
      <note default-x="72">
        <pitch>
          <step>C</step>
          <octave>4</octave>
        </pitch>
        <duration>2</duration>
        <voice>1</voice>
        <type>quarter</type>
        <stem default-y="-50">down</stem>
        <lyric default-y="-69" number="1">
          <syllabic>begin</syllabic>
          <text>по</text>
        </lyric>
      </note>
      <note default-x="110">
        <pitch>
          <step>D</step>
          <octave>4</octave>
        </pitch>
        <duration>2</duration>
        <voice>1</voice>
        <type>quarter</type>
        <stem default-y="-45">down</stem>
        <lyric default-y="-69" number="1">
          <syllabic>end</syllabic>
          <text>вни</text>
        </lyric>
      </note>
    </measure>
    <!--=======================================================-->
    <measure number="11" width="156">
      <note default-x="25">
        <pitch>
          <step>E</step>
          <alter>-1</alter>
          <octave>4</octave>
        </pitch>
        <duration>1</duration>
        <voice>1</voice>
        <type>eighth</type>
        <accidental>flat</accidental>
        <stem default-y="-40">down</stem>
        <beam number="1">begin</beam>
        <notations>
          <slur bezier-x="8" bezier-y="8" default-x="6" default-y="5" number="1" placement="above" type="start"/>
        </notations>
        <lyric default-y="-69" number="1">
          <syllabic>begin</syllabic>
          <text>ві</text>
        </lyric>
      </note>
      <note default-x="49">
        <pitch>
          <step>D</step>
          <octave>4</octave>
        </pitch>
        <duration>1</duration>
        <voice>1</voice>
        <type>eighth</type>
        <stem default-y="-45">down</stem>
        <beam number="1">end</beam>
        <notations>
          <slur bezier-x="-7" bezier-y="9" default-x="6" default-y="3" number="1" type="stop"/>
        </notations>
      </note>
      <note default-x="72">
        <pitch>
          <step>E</step>
          <alter>-1</alter>
          <octave>4</octave>
        </pitch>
        <duration>2</duration>
        <voice>1</voice>
        <type>quarter</type>
        <stem default-y="-40">down</stem>
        <notations>
          <slur bezier-x="12" bezier-y="10" default-x="6" default-y="5" number="1" placement="above" type="start"/>
        </notations>
        <lyric default-y="-69" number="1" relative-x="5">
          <syllabic>end</syllabic>
          <text>дра</text>
        </lyric>
      </note>
      <note default-x="110">
        <pitch>
          <step>D</step>
          <octave>4</octave>
        </pitch>
        <duration>2</duration>
        <voice>1</voice>
        <type>quarter</type>
        <stem default-y="-45">down</stem>
        <notations>
          <slur bezier-x="-11" bezier-y="11" default-x="6" default-y="3" number="1" type="stop"/>
        </notations>
      </note>
      <barline location="right">
        <bar-style>light-light</bar-style>
      </barline>
    </measure>
    <!--=======================================================-->
    <measure number="12" width="136">
      <direction placement="below">
        <direction-type>
          <words default-y="-1">2</words>
        </direction-type>
      </direction>
      <note default-x="12">
        <pitch>
          <step>C</step>
          <octave>4</octave>
        </pitch>
        <duration>2</duration>
        <voice>1</voice>
        <type>quarter</type>
        <stem default-y="-50">down</stem>
        <lyric default-y="-69" number="1">
          <syllabic>single</syllabic>
          <text>5.</text>
          <elision> </elision>
          <syllabic>begin</syllabic>
          <text>тя</text>
        </lyric>
      </note>
      <note default-x="32">
        <grace slash="yes"/>
        <pitch>
          <step>D</step>
          <octave>4</octave>
        </pitch>
        <voice>1</voice>
        <type>eighth</type>
        <stem default-y="8">up</stem>
        <notations>
          <slur bezier-x="0" bezier-y="-8" default-x="3" default-y="-14" number="1" placement="below" type="start"/>
        </notations>
        <lyric default-y="-69" number="1">
          <syllabic>middle</syllabic>
          <text>жко</text>
        </lyric>
      </note>
      <note default-x="51">
        <pitch>
          <step>C</step>
          <octave>4</octave>
        </pitch>
        <duration>2</duration>
        <voice>1</voice>
        <type>quarter</type>
        <stem default-y="-50">down</stem>
        <notations>
          <slur bezier-x="-8" bezier-y="-2" default-x="-4" default-y="-23" number="1" type="stop"/>
          <slur bezier-x="11" bezier-y="11" default-x="6" default-y="-5" number="1" placement="above" type="start"/>
        </notations>
      </note>
      <note default-x="90">
        <pitch>
          <step>C</step>
          <octave>4</octave>
        </pitch>
        <duration>2</duration>
        <voice>1</voice>
        <type>quarter</type>
        <stem default-y="-50">down</stem>
        <notations>
          <slur bezier-x="-11" bezier-y="11" default-x="6" default-y="-5" number="1" type="stop"/>
        </notations>
        <lyric default-y="-69" number="1">
          <syllabic>end</syllabic>
          <text>(о)</text>
        </lyric>
      </note>
      <barline location="right">
        <bar-style>light-light</bar-style>
      </barline>
    </measure>
    <!--=======================================================-->
    <measure number="13" width="103">
      <direction placement="above">
        <direction-type>
          <words default-y="4" relative-x="-7">3</words>
        </direction-type>
      </direction>
      <note default-x="12">
        <pitch>
          <step>B</step>
          <octave>3</octave>
        </pitch>
        <duration>3</duration>
        <voice>1</voice>
        <type>quarter</type>
        <dot/>
        <stem default-y="-55">down</stem>
        <notations>
          <slur bezier-x="12" bezier-y="16" default-x="6" default-y="-7" number="1" placement="above" type="start"/>
        </notations>
        <lyric default-y="-69" number="1">
          <syllabic>single</syllabic>
          <text>4.</text>
          <elision> </elision>
          <syllabic>begin</syllabic>
          <text>би</text>
        </lyric>
      </note>
      <note default-x="65">
        <pitch>
          <step>A</step>
          <octave>3</octave>
        </pitch>
        <duration>1</duration>
        <voice>1</voice>
        <type>eighth</type>
        <stem default-y="10">up</stem>
        <notations>
          <slur bezier-x="-17" bezier-y="10" default-x="7" default-y="3" number="1" type="stop"/>
        </notations>
        <lyric default-y="-69" number="1">
          <syllabic>end</syllabic>
          <text>­</text>
        </lyric>
      </note>
      <barline location="right">
        <bar-style>light-heavy</bar-style>
      </barline>
    </measure>
  </part>
  <!--=========================================================-->
</score-partwise>
